<?xml version="1.0" encoding="UTF-8"?>
<svg version="1.1" xmlns="http://www.w3.org/2000/svg" width="512" height="512">
<path d="M0 0 C1.20524142 -0.00657338 1.20524142 -0.00657338 2.43483114 -0.01327956 C5.13066945 -0.02664747 7.82647508 -0.03284198 10.52233887 -0.03897095 C12.45417427 -0.04687366 14.38600819 -0.05514272 16.31784058 -0.06375122 C22.66659132 -0.08995753 29.0153486 -0.10528014 35.36413574 -0.11953735 C37.5518138 -0.12489811 39.73949182 -0.13027562 41.9271698 -0.13566971 C51.03065673 -0.15729876 60.13414189 -0.1760335 69.23764801 -0.1872921 C82.27076081 -0.20351783 95.30357485 -0.23666214 108.33657503 -0.29369295 C117.50704336 -0.33244862 126.67743197 -0.35193162 135.84798002 -0.35721266 C141.32132036 -0.36085914 146.79434195 -0.37280534 152.26759338 -0.4053154 C157.42230281 -0.43549394 162.57650225 -0.44167293 167.73128128 -0.42993164 C169.61618073 -0.42971171 171.50110452 -0.43794985 173.38592148 -0.45558548 C187.82573305 -0.58326423 198.61287863 1.03116343 209.44226074 11.4937439 C210.31366699 12.37159546 211.18507324 13.24944702 212.08288574 14.15390015 C213.17029958 15.21885507 214.25890572 16.28259349 215.34851074 17.3453064 C220.53644867 22.43746016 225.574121 27.58386411 230.27819824 33.13046265 C233.06005077 36.24950942 236.05823429 39.14979656 239.03210449 42.08358765 C242.30448206 45.32892077 245.35879511 48.68716732 248.33679199 52.20077515 C250.3335625 54.4342992 252.47547725 56.46369605 254.64538574 58.52890015 C265.74008946 69.58580249 268.38578857 81.890999 268.43121815 97.09901047 C268.42254256 99.85182464 268.39947863 102.6043021 268.37585449 105.35702515 C268.37024839 107.29043242 268.3659831 109.223844 268.36299133 111.15725708 C268.35162232 116.20755096 268.32222489 121.25757958 268.28887939 126.30776978 C268.25800582 131.4764955 268.2444493 136.64526473 268.22937012 141.8140564 C268.19734646 151.92745319 268.14624798 162.04065448 268.08288574 172.15390015 C268.75559006 172.1450177 269.42829437 172.13613525 270.12138367 172.12698364 C277.17902045 172.03788043 284.23649515 171.97790653 291.29455566 171.93417358 C293.92190043 171.91416801 296.5492013 171.88695478 299.1763916 171.85214233 C302.97215671 171.80313682 306.76732864 171.78081964 310.56335449 171.76327515 C311.72118942 171.74263 312.87902435 171.72198486 314.07194519 171.70071411 C329.78690025 171.69647563 343.7322979 177.44226278 354.95788574 188.46640015 C366.68307954 200.84955446 371.23348406 215.04701705 371.23005676 231.87908936 C371.23373345 232.85297942 371.23741014 233.82686948 371.24119824 234.83027136 C371.25220388 238.09098503 371.25607367 241.3516668 371.2598877 244.61239624 C371.26615484 246.95182394 371.27280186 249.29125065 371.27980042 251.63067627 C371.30081822 259.31288971 371.31120258 266.99510329 371.32116699 274.67733765 C371.32521579 277.32616816 371.32933274 279.97499858 371.33351707 282.62382889 C371.35052639 293.64722804 371.36501727 304.67062623 371.37226582 315.69403648 C371.37417545 318.55158871 371.37609582 321.40914092 371.37805176 324.26669312 C371.3785355 324.97685068 371.37901924 325.68700825 371.37951764 326.41868575 C371.38780571 337.90502934 371.41312321 349.39126838 371.44563244 360.87756638 C371.4787988 372.69324532 371.49672328 384.50887131 371.49991006 396.324597 C371.50206656 402.94931991 371.5111383 409.57390792 371.53637123 416.19858932 C371.55975382 422.43833669 371.56384422 428.67781117 371.55360985 434.91759109 C371.55311681 437.19749106 371.55936811 439.47740492 371.57316589 441.75726318 C371.67512449 459.61540021 370.64102248 475.01436927 360.08288574 490.15390015 C359.39065918 491.14970093 359.39065918 491.14970093 358.68444824 492.1656189 C350.6046331 502.55728866 337.01074955 510.08237902 324.08288574 512.15390015 C318.67847593 512.45995547 313.2782609 512.44836256 307.86730957 512.44442749 C306.22221575 512.45041852 304.57712473 512.45722539 302.93203735 512.46478271 C298.47928573 512.48239373 294.02661107 512.48713609 289.57382798 512.48841429 C286.78631375 512.48983949 283.99881885 512.49411612 281.21130943 512.49940872 C271.47049094 512.51789444 261.72972705 512.52608137 251.9888916 512.52450562 C242.9355062 512.52330537 233.88235964 512.54438855 224.82903463 512.57599294 C217.03509275 512.60222296 209.24122854 512.61287006 201.44724292 512.6115948 C196.80173152 512.61108704 192.15643244 512.61666633 187.51096535 512.6379509 C183.13677207 512.65744644 178.76299111 512.65738121 174.3887825 512.64291763 C172.79296065 512.64084222 171.19711221 512.64545387 169.60133553 512.65763855 C151.60441518 512.78603891 137.63610611 508.00489108 124.40319824 495.56015015 C111.71957317 482.40676118 108.01179309 466.12223134 107.95788574 448.27890015 C107.99913574 446.25765015 108.04038574 444.23640015 108.08288574 442.15390015 C99.50288574 442.15390015 90.92288574 442.15390015 82.08288574 442.15390015 C82.41288574 442.81390015 82.74288574 443.47390015 83.08288574 444.15390015 C83.90336462 450.6370283 82.89771162 455.81081069 79.08288574 461.15390015 C76.38302682 463.93130071 73.302005 466.00782064 70.08288574 468.15390015 C70.96976074 468.69015015 71.85663574 469.22640015 72.77038574 469.77890015 C77.63808772 473.03554237 81.60411867 477.37326523 83.08288574 483.15390015 C83.89789104 489.67394254 82.94213736 494.77810978 79.08288574 500.15390015 C74.79119462 504.84046842 70.4210965 507.76916531 63.9087677 508.34671211 C61.28487572 508.4323893 58.66717336 508.45521937 56.04187012 508.45687866 C55.04601395 508.46531799 54.05015778 508.47375732 53.02412415 508.48245239 C49.74162299 508.5081822 46.45921175 508.52036061 43.17663574 508.5328064 C40.89029229 508.54898732 38.60395572 508.56616794 36.31762695 508.58430481 C30.30303125 508.6299588 24.28842623 508.66477767 18.27374268 508.69650269 C8.64684132 508.74840144 -0.97995848 508.81363394 -10.60673523 508.88471794 C-13.96689971 508.90750821 -17.32705142 508.92380748 -20.68725586 508.93943787 C-22.75020486 508.95284866 -24.81315255 508.96646382 -26.87609863 508.98031616 C-27.80822678 508.98292953 -28.74035492 508.98554291 -29.70072937 508.98823547 C-34.22920295 509.02429921 -38.45319075 509.30845051 -42.91711426 510.15390015 C-44.34803497 510.24897155 -45.78176967 510.31037165 -47.21569824 510.3309021 C-48.00770126 510.34373734 -48.79970428 510.35657257 -49.6157074 510.36979675 C-50.8767202 510.38087715 -50.8767202 510.38087715 -52.16320801 510.3921814 C-53.05137711 510.40025314 -53.9395462 510.40832489 -54.85462952 510.41664124 C-56.73310425 510.43043245 -58.61160352 510.44117665 -60.4901123 510.44906616 C-62.38374337 510.46052511 -64.27734372 510.48087904 -66.17077637 510.5105896 C-87.24765158 510.84057829 -104.69770211 507.23362581 -121.08898926 492.9234314 C-134.20117746 480.08290455 -140.82033598 464.47120439 -141.29211426 446.15390015 C-140.78661799 426.50547992 -133.32882216 410.11932642 -119.35461426 396.40390015 C-107.1061669 385.92700116 -91.79247657 381.17245215 -75.91711426 380.15390015 C-76.23937988 379.43847046 -76.56164551 378.72304077 -76.89367676 377.9859314 C-79.02443683 372.08974418 -78.90210452 365.51000377 -76.29211426 359.77890015 C-73.59957289 355.11246724 -70.09111026 351.87856548 -64.91711426 350.15390015 C-65.44820801 349.79038452 -65.97930176 349.4268689 -66.52648926 349.05233765 C-72.06549756 345.11034269 -75.71773026 341.75205214 -77.91711426 335.15390015 C-78.65781733 328.31757511 -78.01397348 322.79650687 -73.91711426 317.15390015 C-70.38654168 313.44396693 -66.45348374 310.37062411 -61.2598877 309.92684937 C-60.27536621 309.937323 -59.29084473 309.94779663 -58.27648926 309.95858765 C-57.20656738 309.96503296 -56.13664551 309.97147827 -55.03430176 309.9781189 C-53.92312988 309.99487671 -52.81195801 310.01163452 -51.66711426 310.02890015 C-50.54047363 310.03792358 -49.41383301 310.04694702 -48.25305176 310.0562439 C-45.47419061 310.07979357 -42.69576036 310.11268335 -39.91711426 310.15390015 C-39.91863314 309.57482889 -39.92015202 308.99575762 -39.92171693 308.39913875 C-40.01131619 274.04459504 -40.07990436 239.690078 -40.12137558 205.33544283 C-40.12637813 201.20632489 -40.13155545 197.07720719 -40.13684082 192.9480896 C-40.13789006 192.12608996 -40.1389393 191.30409032 -40.14002034 190.4571816 C-40.15740438 177.16428213 -40.18893099 163.87145218 -40.22572544 150.57859389 C-40.26319066 136.92911566 -40.28536189 123.27967373 -40.29346824 109.63014621 C-40.29894447 101.21416931 -40.31621251 92.79838892 -40.34878013 84.38247254 C-40.369997 78.60381197 -40.37629816 72.82525233 -40.37111977 67.04655568 C-40.368569 63.71722151 -40.37457264 60.38850429 -40.39393616 57.05918503 C-40.5760502 24.1221548 -40.5760502 24.1221548 -27.00305176 10.1890564 C-19.09464128 2.73750628 -10.69332751 0.00709151 0 0 Z " fill="#FED9A9" transform="translate(140.9171142578125,-0.153900146484375)"/>
<path d="M0 0 C1.01557952 -0.00551503 1.01557952 -0.00551503 2.0516758 -0.01114148 C4.31367382 -0.02212815 6.57562583 -0.02601364 8.83764648 -0.02983093 C10.462592 -0.03609955 12.08753609 -0.0427467 13.71247864 -0.04974365 C19.04455576 -0.0707453 24.37663303 -0.08114484 29.70874023 -0.09111023 C31.54876724 -0.09515974 33.3887941 -0.09927672 35.2288208 -0.10346031 C43.87805657 -0.12250623 52.52728386 -0.13673652 61.17653656 -0.14507228 C71.13724617 -0.15483205 81.09773281 -0.18112113 91.05836391 -0.22157317 C98.7715571 -0.25181493 106.48468668 -0.26654892 114.19793797 -0.26985329 C118.79767832 -0.27219526 123.39718032 -0.28104348 127.99685669 -0.30631447 C132.3307751 -0.32974066 136.6643007 -0.33377055 140.99826622 -0.32355309 C142.57957968 -0.32306107 144.16091344 -0.32928156 145.74216652 -0.34310913 C163.20955756 -0.48717584 178.28792008 3.95485857 191.02124023 16.45967102 C202.74643403 28.84282533 207.29683856 43.04028793 207.29341125 59.87236023 C207.29708794 60.84625029 207.30076463 61.82014035 207.30455273 62.82354224 C207.31555838 66.08425591 207.31942816 69.34493768 207.32324219 72.60566711 C207.32950933 74.94509481 207.33615635 77.28452152 207.34315491 79.62394714 C207.36417271 87.30616058 207.37455707 94.98837416 207.38452148 102.67060852 C207.38857028 105.31943904 207.39268724 107.96826945 207.39687157 110.61709976 C207.41388088 121.64049891 207.42837176 132.6638971 207.43562031 143.68730736 C207.43752994 146.54485958 207.43945031 149.4024118 207.44140625 152.25996399 C207.44188999 152.97012156 207.44237373 153.68027913 207.44287213 154.41195662 C207.45116021 165.89830021 207.47647771 177.38453925 207.50898693 188.87083726 C207.54215329 200.68651619 207.56007777 212.50214218 207.56326455 224.31786788 C207.56542105 230.94259078 207.57449279 237.56717879 207.59972572 244.1918602 C207.62310831 250.43160757 207.62719871 256.67108204 207.61696434 262.91086197 C207.6164713 265.19076193 207.6227226 267.47067579 207.63652039 269.75053406 C207.73847899 287.60867108 206.70437697 303.00764015 196.14624023 318.14717102 C195.45401367 319.1429718 195.45401367 319.1429718 194.74780273 320.15888977 C186.66798759 330.55055953 173.07410404 338.07564989 160.14624023 340.14717102 C154.74183042 340.45322634 149.3416154 340.44163343 143.93066406 340.43769836 C142.28557024 340.4436894 140.64047922 340.45049626 138.99539185 340.45805359 C134.54264022 340.4756646 130.08996556 340.48040696 125.63718247 340.48168516 C122.84966824 340.48311036 120.06217334 340.48738699 117.27466393 340.4926796 C107.53384543 340.51116531 97.79308155 340.51935224 88.05224609 340.51777649 C78.99886069 340.51657624 69.94571413 340.53765942 60.89238912 340.56926382 C53.09844724 340.59549383 45.30458304 340.60614094 37.51059741 340.60486567 C32.86508602 340.60435791 28.21978693 340.60993721 23.57431984 340.63122177 C19.20012656 340.65071732 14.8263456 340.65065208 10.45213699 340.63618851 C8.85631514 340.6341131 7.2604667 340.63872474 5.66469002 340.65090942 C-12.33223033 340.77930979 -26.3005394 335.99816196 -39.53344727 323.55342102 C-56.41230639 306.04941897 -56.16300759 283.80849883 -56.06835938 261.03999329 C-56.06611454 258.72732099 -56.06469275 256.41464778 -56.06402588 254.10197449 C-56.05924478 247.85607844 -56.04118598 241.61029156 -56.01927638 235.36443448 C-56.00607422 231.45490306 -55.99559412 227.54537373 -55.98602486 223.63583183 C-55.95922336 212.78107012 -55.92954721 201.92633414 -55.88593197 191.07162571 C-55.88176191 190.03353759 -55.88176191 190.03353759 -55.8775076 188.974478 C-55.87185788 187.57196739 -55.86620477 186.16945679 -55.86054831 184.7669462 C-55.85774413 184.07088475 -55.85493994 183.37482329 -55.85205078 182.65766907 C-55.84924072 181.96074504 -55.84643065 181.26382102 -55.84353543 180.54577809 C-55.79860267 169.25007659 -55.77711739 157.95446476 -55.76598936 146.65868414 C-55.75422155 135.02233813 -55.72335362 123.38617486 -55.67457587 111.74992412 C-55.64761457 105.23211493 -55.62837448 98.7145118 -55.6287365 92.19664192 C-55.62847436 86.06580515 -55.60430245 79.93550933 -55.56228638 73.80482101 C-55.55091684 71.56484461 -55.54786127 69.32480688 -55.55407906 67.08481026 C-55.60029312 47.34360699 -52.69833731 31.47824615 -38.72875977 16.45967102 C-31.20726687 9.31040217 -22.01682287 3.54898867 -11.85375977 1.14717102 C-11.12886856 0.97545789 -10.40397736 0.80374475 -9.65711975 0.62682819 C-6.39480416 0.06864334 -3.31077502 0.01169279 0 0 Z " fill="#7BCB91" transform="translate(304.853759765625,171.8528289794922)"/>
<path d="M0 0 C1.64428734 -0.01279495 1.64428734 -0.01279495 3.3217926 -0.02584839 C4.51978989 -0.02494202 5.71778717 -0.02403564 6.9520874 -0.02310181 C8.21753891 -0.02981903 9.48299042 -0.03653625 10.78678894 -0.04345703 C14.25600621 -0.0611162 17.7251248 -0.06581247 21.19438267 -0.0670886 C23.36406286 -0.06851123 25.53371805 -0.07278303 27.70339203 -0.07808304 C35.27930796 -0.09658564 42.85515354 -0.10475369 50.43109131 -0.10317993 C57.4816218 -0.10197965 64.5318456 -0.12305884 71.58229852 -0.15466726 C77.64361512 -0.18086813 83.70483183 -0.19154558 89.7662046 -0.19026911 C93.38268041 -0.18976043 96.99888386 -0.19539053 100.61530304 -0.21662521 C104.65355678 -0.23968903 108.69112948 -0.23046355 112.72943115 -0.21841431 C114.51428169 -0.23527283 114.51428169 -0.23527283 116.33518982 -0.25247192 C124.11737045 -0.19352271 129.64307387 0.77641865 135.65814209 6.08383179 C136.11318115 6.66004272 136.56822021 7.23625366 137.03704834 7.82992554 C137.51013428 8.4087146 137.98322021 8.98750366 138.47064209 9.58383179 C141.58676382 14.23105831 141.12604198 19.91474023 140.59954834 25.26742554 C138.27937504 32.8836466 133.32524363 36.42417108 126.59954834 40.26742554 C127.79579834 40.74180054 128.99204834 41.21617554 130.22454834 41.70492554 C135.41130477 44.35367837 138.41712199 47.87131644 140.59954834 53.26742554 C141.4376855 58.66336643 141.17587228 63.43674949 139.53704834 68.64242554 C136.340856 72.97275065 132.90265965 76.58139238 127.66204834 78.14242554 C126.98142334 78.18367554 126.30079834 78.22492554 125.59954834 78.26742554 C125.59954834 78.92742554 125.59954834 79.58742554 125.59954834 80.26742554 C126.28017334 80.30867554 126.96079834 80.34992554 127.66204834 80.39242554 C132.71842645 81.89858072 136.23811313 85.37531488 139.28314209 89.60726929 C141.87697044 94.84880373 141.47631754 101.08391832 139.94329834 106.65023804 C137.7304063 111.66739845 134.38757383 114.6790034 129.59954834 117.26742554 C128.60954834 117.59742554 127.61954834 117.92742554 126.59954834 118.26742554 C127.19122803 118.6193396 127.78290771 118.97125366 128.39251709 119.33383179 C134.69176033 123.2695743 139.17510328 126.99409035 141.59954834 134.26742554 C142.38156432 140.76713214 141.43049388 145.9017587 137.59954834 151.26742554 C134.89968941 154.0448261 131.8186676 156.12134603 128.59954834 158.26742554 C129.48642334 158.80367554 130.37329834 159.33992554 131.28704834 159.89242554 C136.15475032 163.14906776 140.12078127 167.48679062 141.59954834 173.26742554 C142.41455364 179.78746793 141.45879995 184.89163517 137.59954834 190.26742554 C133.30785721 194.95399381 128.9377591 197.8826907 122.4254303 198.4602375 C119.80153832 198.54591469 117.18383596 198.56874476 114.55853271 198.57040405 C113.06474846 198.58306305 113.06474846 198.58306305 111.54078674 198.59597778 C108.25828559 198.62170759 104.97587435 198.633886 101.69329834 198.64633179 C99.40695489 198.66251271 97.12061832 198.67969333 94.83428955 198.6978302 C88.81969384 198.74348419 82.80508883 198.77830306 76.79040527 198.81002808 C67.16350391 198.86192683 57.53670412 198.92715934 47.90992737 198.99824333 C44.54976289 199.0210336 41.18961117 199.03733287 37.82940674 199.05296326 C35.76645774 199.06637405 33.70351005 199.07998921 31.64056396 199.09384155 C30.70843582 199.09645493 29.77630768 199.0990683 28.81593323 199.10176086 C24.28745965 199.1378246 20.06347185 199.4219759 15.59954834 200.26742554 C14.16862763 200.36249694 12.73489293 200.42389704 11.30096436 200.44442749 C10.11295982 200.46368034 10.11295982 200.46368034 8.9009552 200.48332214 C8.06028 200.49070908 7.2196048 200.49809601 6.35345459 200.50570679 C5.46528549 200.51377853 4.57711639 200.52185028 3.66203308 200.53016663 C1.78355835 200.54395784 -0.09494092 200.55470204 -1.97344971 200.56259155 C-3.86708077 200.5740505 -5.76068112 200.59440443 -7.65411377 200.62411499 C-28.73098898 200.95410368 -46.18103951 197.3471512 -62.57232666 183.03695679 C-75.68451487 170.19642994 -82.30367339 154.58472979 -82.77545166 136.26742554 C-82.26995539 116.61900531 -74.81215956 100.23285181 -60.83795166 86.51742554 C-48.5895043 76.04052655 -33.27581397 71.28597754 -17.40045166 70.26742554 C-17.72271729 69.55199585 -18.04498291 68.83656616 -18.37701416 68.09945679 C-20.50777423 62.20326957 -20.38544193 55.62352916 -17.77545166 49.89242554 C-15.08291029 45.22599263 -11.57444767 41.99209087 -6.40045166 40.26742554 C-7.19709229 39.7221521 -7.19709229 39.7221521 -8.00982666 39.16586304 C-13.54883496 35.22386808 -17.20106766 31.86557754 -19.40045166 25.26742554 C-20.14115473 18.4311005 -19.49731088 12.91003226 -15.40045166 7.26742554 C-10.87196138 2.50887826 -6.56347551 0.02310884 0 0 Z " fill="#FE9811" transform="translate(82.40045166015625,309.7325744628906)"/>
<path d="M0 0 C1.29675659 -0.0071553 2.59351318 -0.01431061 3.92956543 -0.02168274 C5.36997962 -0.024523 6.81039407 -0.02723473 8.25080872 -0.02983093 C9.76534684 -0.03609638 11.27988343 -0.04274325 12.79441833 -0.04974365 C17.77181428 -0.07077926 22.74921051 -0.08114652 27.72663879 -0.09111023 C29.44109424 -0.09515817 31.15554953 -0.0992751 32.87000465 -0.10346031 C40.92603388 -0.12251198 48.98205395 -0.13674228 57.03810138 -0.14507228 C66.33159213 -0.15484083 75.62484446 -0.18115038 84.91825122 -0.22157317 C92.10479119 -0.25175696 99.29126292 -0.26654336 106.47786504 -0.26985329 C110.76840341 -0.27220148 115.05868707 -0.28113144 119.34915733 -0.30631447 C123.38838377 -0.32963952 127.4271886 -0.33381079 131.466465 -0.32355309 C132.94506167 -0.32305866 134.4236794 -0.32935148 135.90221214 -0.34310913 C151.74081045 -0.48218236 151.74081045 -0.48218236 158.31564617 5.52375317 C164.80071551 12.62695062 164.18124592 21.1389305 164.17927551 30.14961243 C164.18363149 32.37745134 164.21995106 34.60327774 164.25788879 36.83076477 C164.32567373 45.34950821 164.20399695 53.93200654 158.43171692 60.78096008 C153.43153966 65.34109567 147.89588588 66.3948201 141.33250427 66.41459656 C140.048452 66.42312653 138.76439972 66.43165649 137.44143677 66.44044495 C136.03080737 66.43974602 134.62017807 66.43882302 133.20954895 66.43769836 C131.71427069 66.44368701 130.21899551 66.45049333 128.72372437 66.45805359 C124.67200222 66.47568564 120.62036461 66.48040776 116.56860781 66.48168516 C114.03475222 66.48310879 111.50091799 66.48738238 108.96706772 66.4926796 C100.12030935 66.51116992 91.27361116 66.51935137 82.42683411 66.51777649 C74.19135485 66.51657504 65.95613765 66.53768057 57.7207247 66.56926382 C50.64027002 66.59544633 43.55990083 66.60614297 36.47939813 66.60486567 C32.25486998 66.60435666 28.03057488 66.61000614 23.80609512 66.63122177 C19.83164803 66.65063786 15.85765553 66.65070592 11.88319206 66.63618851 C10.42878871 66.63410353 8.97435665 66.63878275 7.52000237 66.65090942 C-8.25022178 66.77383601 -8.25022178 66.77383601 -14.69920921 60.73525047 C-19.69686115 55.15833626 -20.50077097 50.04190533 -20.49211121 42.77607727 C-20.49853889 41.57615395 -20.49853889 41.57615395 -20.50509644 40.35198975 C-20.51082274 38.66515547 -20.51135255 36.97829652 -20.50700378 35.29145813 C-20.50384443 32.7214464 -20.52732099 30.15258747 -20.55265808 27.5827179 C-20.55493144 25.93883913 -20.5556344 24.29495729 -20.55461121 22.65107727 C-20.56382095 21.88840042 -20.5730307 21.12572357 -20.58251953 20.3399353 C-20.53292765 14.57424792 -19.29239169 10.40496518 -15.25382996 6.06513977 C-14.57320496 5.49408508 -13.89257996 4.9230304 -13.19132996 4.33467102 C-12.51070496 3.75072571 -11.83007996 3.1667804 -11.12882996 2.56513977 C-7.52154644 -0.07486812 -4.32937082 0.01637492 0 0 Z " fill="#3D9AE0" transform="translate(309.1913299560547,204.8528289794922)"/>
<path d="M0 0 C0 4.43253482 -2.28472823 7.47969197 -4.39453125 11.30859375 C-10.17256735 23.72697532 -9.42733556 36.74579221 -9.38818359 50.12719727 C-9.39225356 52.46577194 -9.39759783 54.80434468 -9.40411377 57.14291382 C-9.41774169 63.46716861 -9.41250757 69.79127589 -9.40297651 76.11553311 C-9.39613081 82.07421147 -9.401368 88.03287194 -9.4057581 93.9915508 C-9.41429319 106.51088103 -9.40450715 119.03014513 -9.388357 131.54946452 C-9.37495238 142.27218584 -9.37728672 152.99480972 -9.39111328 163.7175293 C-9.40719705 176.19643392 -9.41347267 188.67528075 -9.40427649 201.1541943 C-9.39960877 207.75012897 -9.39895046 214.34599664 -9.40888596 220.94192696 C-9.41757527 227.14314938 -9.41149763 233.3441884 -9.39420319 239.54539108 C-9.39024904 241.81609608 -9.39135393 244.0868166 -9.39799118 246.35751534 C-9.40623903 249.46674453 -9.39584592 252.57539296 -9.38095093 255.68458557 C-9.38764309 256.57429552 -9.39433526 257.46400547 -9.40123022 258.38067633 C-9.24959299 274.79863843 -2.21292382 289.12758272 8.80078125 300.9296875 C17.77108956 309.57345353 30.75187952 315.24630736 43.1658783 315.25396729 C43.85225154 315.25708727 44.53862478 315.26020725 45.24579722 315.26342177 C47.52715416 315.2713475 49.80824107 315.26509953 52.08959961 315.25878906 C53.73280492 315.26150136 55.37600901 315.26506364 57.01921082 315.26940918 C61.4696352 315.27850769 65.9199666 315.27499921 70.37039256 315.26865101 C75.03514396 315.26357702 79.69988756 315.26828643 84.36463928 315.27142334 C92.19842961 315.27505927 100.0321822 315.27027405 107.8659668 315.26074219 C116.91197739 315.24986216 125.95789779 315.25338144 135.00390619 315.264395 C142.78076126 315.27348304 150.55758925 315.27474562 158.33444792 315.26951766 C162.97471409 315.26640582 167.61493792 315.26596692 172.25520134 315.27259064 C176.61942688 315.27838541 180.98353663 315.27432829 185.34774971 315.26280212 C186.94566277 315.26016676 188.54358565 315.26090136 190.14149475 315.26532745 C201.21866821 315.29790056 201.21866821 315.29790056 212 313 C213.99601306 312.6435691 215.994845 312.30077325 218 312 C210.59521355 323.74767808 198.05882615 331.31302205 184.67726707 334.57100296 C178.45334698 335.56830477 172.07441953 335.29510169 165.78442383 335.29052734 C164.13933001 335.29651837 162.49423898 335.30332524 160.84915161 335.31088257 C156.39639999 335.32849358 151.94372533 335.33323594 147.49094224 335.33451414 C144.70342801 335.33593934 141.91593311 335.34021597 139.12842369 335.34550858 C129.3876052 335.36399429 119.64684131 335.37218122 109.90600586 335.37060547 C100.85262046 335.36940522 91.79947389 335.3904884 82.74614888 335.4220928 C74.95220701 335.44832281 67.1583428 335.45896992 59.36435717 335.45769465 C54.71884578 335.45718689 50.07354669 335.46276619 45.42807961 335.48405075 C41.05388632 335.5035463 36.68010537 335.50348106 32.30589676 335.48901749 C30.71007491 335.48694208 29.11422647 335.49155372 27.51844978 335.5037384 C9.52152944 335.63213877 -4.44677964 330.85099094 -17.6796875 318.40625 C-34.55854662 300.90224795 -34.30924783 278.66132781 -34.21459961 255.89282227 C-34.21235477 253.58014997 -34.21093299 251.26747675 -34.21026611 248.95480347 C-34.20548501 242.70890741 -34.18742622 236.46312054 -34.16551661 230.21726346 C-34.15231446 226.30773204 -34.14183435 222.39820271 -34.13226509 218.48866081 C-34.10546359 207.6338991 -34.07578745 196.77916312 -34.0321722 185.92445469 C-34.02800214 184.88636657 -34.02800214 184.88636657 -34.02374784 183.82730698 C-34.01809811 182.42479637 -34.01244501 181.02228577 -34.00678854 179.61977518 C-34.00398436 178.92371373 -34.00118018 178.22765227 -33.99829102 177.51049805 C-33.99548095 176.81357402 -33.99267088 176.11665 -33.98977567 175.39860707 C-33.9448429 164.10290557 -33.92335763 152.80729374 -33.91222959 141.51151312 C-33.90046179 129.87516711 -33.86959386 118.23900384 -33.8208161 106.6027531 C-33.79385481 100.08494391 -33.77461471 93.56734078 -33.77497673 87.0494709 C-33.77471459 80.91863413 -33.75054269 74.78833831 -33.70852661 68.65764999 C-33.69715707 66.41767359 -33.69410151 64.17763586 -33.70031929 61.93763924 C-33.74664317 42.14952313 -30.81846106 26.2943777 -16.8125 11.25 C-11.82760131 6.46346233 -6.08594934 3.20258925 0 0 Z " fill="#4CBA68" transform="translate(283,177)"/>
<path d="M0 0 C0 101.97 0 203.94 0 309 C-10.56 309 -21.12 309 -32 309 C-32.09050998 274.06053113 -32.16208401 239.12110345 -32.20426132 204.18154268 C-32.20926388 200.05242474 -32.21444119 195.92330704 -32.21972656 191.79418945 C-32.2207758 190.97218981 -32.22182505 190.15019017 -32.22290608 189.30328145 C-32.24029012 176.01038198 -32.27181673 162.71755203 -32.30861118 149.42469374 C-32.3460764 135.77521552 -32.36824763 122.12577359 -32.37635398 108.47624606 C-32.38183021 100.06026916 -32.39909825 91.64448877 -32.43166587 83.22857239 C-32.45288274 77.44991182 -32.4591839 71.67135218 -32.45400551 65.89265553 C-32.45145475 62.56332136 -32.45745838 59.23460414 -32.4768219 55.90528488 C-32.65893594 22.96825465 -32.65893594 22.96825465 -19.0859375 9.03515625 C-13.61094079 3.87644421 -7.67340009 0 0 0 Z " fill="#FFC477" transform="translate(133,1)"/>
<path d="M0 0 C0.97090576 0.00757324 1.94181152 0.01514648 2.94213867 0.02294922 C9.96413741 0.18461863 15.91312118 0.95278749 22.125 4.4375 C23.29675781 5.09105469 23.29675781 5.09105469 24.4921875 5.7578125 C26.82772003 7.196878 28.96875779 8.74274136 31.125 10.4375 C31.80304688 10.96601563 32.48109375 11.49453125 33.1796875 12.0390625 C41.5083535 19.39551068 47.60807195 31.47481977 48.328125 42.56640625 C48.52947785 57.31550232 45.09946922 70.71327171 34.875 81.81640625 C23.65093919 92.21369472 11.49947668 95.971808 -3.47265625 95.71484375 C-16.32374827 95.16017991 -28.04145333 88.29384871 -36.765625 79.12109375 C-45.06752983 68.55922594 -49.0802553 55.83138547 -47.875 42.4375 C-46.14262717 29.9486668 -40.923376 18.39409344 -30.875 10.4375 C-20.90705718 3.1812012 -12.33583147 -0.13460767 0 0 Z " fill="#ED8600" transform="translate(89.875,397.5625)"/>
<path d="M0 0 C1.64428734 -0.01279495 1.64428734 -0.01279495 3.3217926 -0.02584839 C4.51978989 -0.02494202 5.71778717 -0.02403564 6.9520874 -0.02310181 C8.21753891 -0.02981903 9.48299042 -0.03653625 10.78678894 -0.04345703 C14.25600621 -0.0611162 17.7251248 -0.06581247 21.19438267 -0.0670886 C23.36406286 -0.06851123 25.53371805 -0.07278303 27.70339203 -0.07808304 C35.27930796 -0.09658564 42.85515354 -0.10475369 50.43109131 -0.10317993 C57.4816218 -0.10197965 64.5318456 -0.12305884 71.58229852 -0.15466726 C77.64361512 -0.18086813 83.70483183 -0.19154558 89.7662046 -0.19026911 C93.38268041 -0.18976043 96.99888386 -0.19539053 100.61530304 -0.21662521 C104.65355678 -0.23968903 108.69112948 -0.23046355 112.72943115 -0.21841431 C114.51428169 -0.23527283 114.51428169 -0.23527283 116.33518982 -0.25247192 C124.11737045 -0.19352271 129.64307387 0.77641865 135.65814209 6.08383179 C136.11318115 6.66004272 136.56822021 7.23625366 137.03704834 7.82992554 C137.51013428 8.4087146 137.98322021 8.98750366 138.47064209 9.58383179 C141.58676382 14.23105831 141.12604198 19.91474023 140.59954834 25.26742554 C138.98083878 30.5810156 136.38032892 34.33376473 131.59954834 37.26742554 C124.67955949 40.49437513 118.63826385 40.70096805 111.06829834 40.67147827 C109.83152344 40.67834152 108.59474854 40.68520477 107.32049561 40.692276 C103.94845115 40.7073811 100.57696231 40.70905502 97.20492554 40.70333362 C94.38192648 40.70023044 91.55897681 40.70634655 88.7359848 40.71237236 C82.07327619 40.72638847 75.41069588 40.72488012 68.74798584 40.71347046 C61.89048515 40.70198624 55.03337541 40.71607634 48.17592621 40.74286693 C42.27162689 40.76506409 36.36744994 40.77165248 30.46311188 40.76579052 C26.94396084 40.76242999 23.42506048 40.76477555 19.90594482 40.78204155 C15.98074151 40.80046215 12.05601489 40.78628225 8.13079834 40.76913452 C6.97523437 40.77880249 5.81967041 40.78847046 4.62908936 40.7984314 C-2.58512516 40.73252427 -8.47778998 39.91828982 -13.91741943 34.85556698 C-18.66600827 29.52090424 -19.8790266 24.80507291 -19.71295166 17.82992554 C-19.03465428 12.26788705 -16.60317938 8.05114535 -12.40045166 4.39242554 C-8.03603153 1.30096128 -5.39001239 0.01897729 0 0 Z " fill="#FFA733" transform="translate(82.40045166015625,309.7325744628906)"/>
<path d="M0 0 C7.29353145 -0.11629525 14.58686019 -0.20491653 21.88113403 -0.25906086 C25.26891024 -0.28505932 28.65604812 -0.32027378 32.04345703 -0.37719727 C35.94580742 -0.43805961 39.84726047 -0.46626048 43.75 -0.48828125 C44.95551514 -0.51408768 46.16103027 -0.5398941 47.40307617 -0.56648254 C54.51085484 -0.56883599 59.61883126 0.0999274 65 5 C69.54786899 10.19503748 71.37720839 14.76575989 71.27734375 21.58984375 C70.6461694 27.07483778 68.10429397 31.32127546 63.9375 34.875 C61.98492209 36.28750317 60.00517659 37.6632156 58 39 C58.886875 39.53625 59.77375 40.0725 60.6875 40.625 C65.55520198 43.88164222 69.52123293 48.21936509 71 54 C71.8150053 60.52004239 70.85925161 65.62420963 67 71 C62.72697653 75.66618301 58.3514413 78.63518491 51.85667801 79.17969131 C49.28203073 79.24563283 46.71458577 79.24732302 44.13916016 79.22705078 C43.16292694 79.22734283 42.18669373 79.22763489 41.18087769 79.22793579 C37.96684763 79.22654687 34.75305186 79.21100612 31.5390625 79.1953125 C29.30561449 79.19158082 27.07216484 79.18873458 24.8387146 79.18673706 C18.96970067 79.17911284 13.10078623 79.15947467 7.23181152 79.1373291 C1.23919012 79.11684463 -4.75344741 79.10772978 -10.74609375 79.09765625 C-22.49743947 79.07622771 -34.24871145 79.04210631 -46 79 C-43.15372181 77.10248121 -40.74884219 76.11809691 -37.5625 74.9375 C-23.70511916 69.22363438 -13.43809607 59.32965032 -6.6875 46.125 C-6.36168945 45.48941162 -6.03587891 44.85382324 -5.70019531 44.19897461 C-0.71556362 33.88867112 0.42659298 24.18474286 0.1875 12.8125 C0.17396484 11.57435547 0.16042969 10.33621094 0.14648438 9.06054688 C0.11149611 6.0398929 0.06240724 3.0201906 0 0 Z " fill="#AA6100" transform="translate(153,429)"/>
<path d="M0 0 C0.96164063 0.32871094 1.92328125 0.65742188 2.9140625 0.99609375 C18.90983824 6.96867668 31.01335406 18.60413502 38.38574219 33.83862305 C45.27192342 48.99282198 46.58217527 66.83530048 41.3125 82.69921875 C34.48104744 99.87950868 23.09201846 113.23488102 6.10791016 120.84814453 C-11.53076261 128.09300396 -28.69961374 127.80255769 -46.25390625 120.6796875 C-63.40700233 112.66176519 -73.66356977 99.99718514 -81 83 C-81.57814453 81.66195312 -81.57814453 81.66195312 -82.16796875 80.296875 C-84.32949759 74.00510092 -84.29633686 67.52444519 -84.375 60.9375 C-84.38917969 60.01501465 -84.40335938 59.0925293 -84.41796875 58.14208984 C-84.29778012 41.28262914 -75.65372633 25.95730263 -64.13671875 14.078125 C-56.86413037 7.2723073 -47.61364092 1.72482437 -38 -1 C-37.30261719 -1.20367187 -36.60523438 -1.40734375 -35.88671875 -1.6171875 C-24.21357321 -4.48152237 -11.26123731 -4.17646489 0 0 Z M-57.25 30.25 C-65.47659753 40.5098759 -69.18927516 52.97460537 -68 66 C-65.920962 80.01166784 -60.23992824 91.15250628 -49 100 C-36.24061349 108.06623691 -22.40564237 111.26824074 -7.54296875 108.3125 C-0.93170364 106.27565324 4.51459761 103.16890582 10 99 C11.546875 97.9171875 11.546875 97.9171875 13.125 96.8125 C21.44178945 89.58151361 26.29589329 77.6908581 28 67 C28.90204871 52.79273274 26.14637738 40.70708048 16.9609375 29.515625 C8.57371655 20.6838517 -1.86735324 14.23319888 -14.234375 13.53125 C-16.07262577 13.49692718 -17.91147368 13.48715664 -19.75 13.5 C-21.19971191 13.50966797 -21.19971191 13.50966797 -22.67871094 13.51953125 C-37.0804415 13.88620848 -47.40270584 19.81746614 -57.25 30.25 Z " fill="#FEC274" transform="translate(110,384)"/>
<path d="M0 0 C1.12341797 -0.01160156 2.24683594 -0.02320313 3.40429688 -0.03515625 C4.48904297 -0.03128906 5.57378906 -0.02742188 6.69140625 -0.0234375 C7.67439697 -0.02005371 8.6573877 -0.01666992 9.67016602 -0.01318359 C14.00229249 0.5944989 16.46145559 2.42566831 19.55557251 5.43510437 C22.12333342 9.44639021 21.9940012 12.53374436 21.93920898 17.20092773 C21.94461197 18.07959503 21.95001495 18.95826233 21.95558167 19.86355591 C21.96806805 22.76224666 21.95157715 25.65994393 21.93359375 28.55859375 C21.93374875 30.57731681 21.93523796 32.59604018 21.93800354 34.61476135 C21.93938754 38.84397552 21.92683018 43.07285057 21.90405273 47.30200195 C21.87568649 52.71700635 21.87840057 58.13144656 21.89114285 63.54649258 C21.89810615 67.71499937 21.89030295 71.88337632 21.87788582 76.05186653 C21.87337639 78.04811161 21.87303007 80.04437066 21.87695122 82.04061699 C21.87986932 84.83392657 21.86332703 87.62646564 21.84155273 90.41967773 C21.84605438 91.24116806 21.85055603 92.06265839 21.85519409 92.90904236 C21.79206744 97.79562951 21.11527315 101.13123222 18.4375 105.375 C12.49858274 110.86849847 7.32597481 110.61282991 -0.375 110.6875 C-1.36048828 110.71650391 -2.34597656 110.74550781 -3.36132812 110.77539062 C-9.2575664 110.82686886 -13.09152996 110.61874586 -17.5625 106.375 C-21.91322622 100.86525181 -23.29731891 96.44627543 -23.19360352 89.49975586 C-23.20075882 88.65151749 -23.20791412 87.80327911 -23.21528625 86.92933655 C-23.23207937 84.14894362 -23.21282815 81.37018449 -23.19140625 78.58984375 C-23.19223574 76.64506396 -23.19469813 74.70028424 -23.19871521 72.75550842 C-23.20156669 68.68957288 -23.18693422 64.62419019 -23.15942383 60.55834961 C-23.12531958 55.35750271 -23.13137311 50.15764234 -23.1500864 44.95674801 C-23.16067454 40.94429866 -23.15170245 36.9320773 -23.13670158 32.91964912 C-23.13153417 31.00238282 -23.13198401 29.08509256 -23.13824654 27.16782951 C-23.14372164 24.48498516 -23.12325175 21.80353491 -23.09594727 19.12084961 C-23.10247314 18.33571991 -23.10899902 17.55059021 -23.11572266 16.7416687 C-23.02025377 11.20080879 -21.71968766 7.9499156 -18.5625 3.375 C-13.15054918 -0.82762425 -6.54139618 -0.06778649 0 0 Z " fill="#FD9812" transform="translate(451.5625,368.625)"/>
<path d="M0 0 C1.85044922 0.02030273 1.85044922 0.02030273 3.73828125 0.04101562 C6.74266604 0.07595033 9.74608409 0.12499855 12.75 0.1875 C9.95692016 1.7081768 8.11070873 2.30092265 4.875 2.875 C-10.26248691 6.0920277 -23.86338835 16.40630385 -32.25 29.1875 C-33.79344132 31.85457768 -35.22924676 34.56554561 -36.625 37.3125 C-36.95902832 37.96927734 -37.29305664 38.62605469 -37.63720703 39.30273438 C-43.84356353 52.09236455 -45.07497613 69.99675512 -40.41015625 83.4921875 C-39.83587891 84.82636719 -39.83587891 84.82636719 -39.25 86.1875 C-38.99718262 86.78723633 -38.74436523 87.38697266 -38.48388672 88.00488281 C-31.7004333 103.75232249 -21.28860981 116.23523853 -5.23925781 123.04003906 C0.61704048 125.27567324 6.57661577 127.06718831 12.75 128.1875 C12.75 128.5175 12.75 128.8475 12.75 129.1875 C-11.15936291 129.89383273 -30.62289603 128.36922886 -49.421875 111.95703125 C-62.53406321 99.1165044 -69.15322173 83.50480425 -69.625 65.1875 C-69.11950373 45.53907977 -61.6617079 29.15292627 -47.6875 15.4375 C-43.55299971 11.9009912 -39.19298596 9.2830272 -34.375 6.8125 C-33.75165771 6.49055664 -33.12831543 6.16861328 -32.48608398 5.83691406 C-21.94905158 0.76109114 -11.56842398 -0.24493406 0 0 Z " fill="#AB6100" transform="translate(69.25,380.8125)"/>
<path d="M0 0 C10.79676164 -0.0696708 21.59346932 -0.12289785 32.39041042 -0.15543652 C37.40447905 -0.17105756 42.41839327 -0.19223054 47.43237305 -0.22631836 C52.27586944 -0.25903911 57.1192178 -0.27687978 61.96281624 -0.28463173 C63.80589183 -0.29015247 65.64895981 -0.30093294 67.49197197 -0.31719017 C70.08393408 -0.33913378 72.67529317 -0.34195992 75.26733398 -0.34057617 C76.39699081 -0.35675491 76.39699081 -0.35675491 77.54946899 -0.3732605 C83.95008686 -0.33655647 90.35352492 0.80185869 95.375 4.97265625 C95.91125 5.66230469 96.4475 6.35195313 97 7.0625 C97.556875 7.75472656 98.11375 8.44695312 98.6875 9.16015625 C102.11202876 13.96061174 101.50031334 19.30357531 101 25 C99.49694426 30.55044076 96.61107876 33.85204518 91.87890625 36.9921875 C87.67021273 39.24965721 84.26792107 40.24949846 79.4753418 40.22705078 C78.39459885 40.22689972 77.3138559 40.22674866 76.20036316 40.22659302 C74.46729668 40.21110916 74.46729668 40.21110916 72.69921875 40.1953125 C71.50770706 40.1924826 70.31619537 40.18965271 69.08857727 40.18673706 C65.28811544 40.17555433 61.48789044 40.1504528 57.6875 40.125 C55.10872737 40.11496775 52.52995103 40.10584233 49.95117188 40.09765625 C43.63403397 40.0756212 37.31703391 40.04216232 31 40 C30.67 40.66 30.34 41.32 30 42 C29.78085938 41.26136719 29.56171875 40.52273438 29.3359375 39.76171875 C24.31611387 23.7023643 16.17073258 11.46056341 1.8359375 2.2421875 C1.23007813 1.83226562 0.62421875 1.42234375 0 1 C0 0.67 0 0.34 0 0 Z " fill="#EE8701" transform="translate(122,389)"/>
<path d="M0 0 C2.94003657 2.61336584 4.74867511 4.24700887 5.3125 8.1796875 C5.3125 10.12258607 5.16687234 12.06428088 5 14 C5.969375 13.9175 6.93875 13.835 7.9375 13.75 C13.35521701 13.73896595 18.56920511 16.0116644 22.73828125 19.421875 C24 21 24 21 24.4375 24.4375 C24 28 24 28 22.375 30.5 C20 32 20 32 17.1875 31.9375 C14 31 14 31 11.0625 29.4375 C5.36427152 26.83808341 -1.9114562 27.31149505 -8 28 C-10.74031474 29.34598906 -12.48590289 30.31453719 -14.3125 32.75 C-15.5879449 36.92418329 -15.67345706 40.56004247 -13.8125 44.5390625 C-11.67325179 47.44364521 -9.94199486 48.41814854 -6.6875 49.9375 C-5.6253125 50.44152344 -4.563125 50.94554687 -3.46875 51.46484375 C0.09969839 53.04412327 3.70099636 54.52221593 7.3125 56 C16.74621268 60.04746749 21.52960315 64.20865212 25.89453125 73.65234375 C28.76827846 82.35482205 27.77512852 91.23090071 24.2578125 99.59375 C20.80195984 106.20494639 16.1874423 110.65753399 9 113 C7.68 113 6.36 113 5 113 C5.04125 114.2375 5.0825 115.475 5.125 116.75 C5.11923274 120.01426921 4.98269829 122.28683393 3 125 C-0.49565336 127.33043558 -1.8865729 127.58763244 -6 127 C-8.56801099 124.83746443 -9.85355976 123.2778092 -10.2421875 119.88671875 C-10.24916401 117.92283161 -10.13284079 115.95940162 -10 114 C-11.299375 113.79375 -12.59875 113.5875 -13.9375 113.375 C-20.6626526 111.87934303 -25.63054397 108.25387281 -30.5625 103.5625 C-32.50063651 100.10756101 -32.56720316 97.89952171 -32 94 C-30.375 91.5 -30.375 91.5 -28 90 C-24.52636589 89.76316131 -22.65628138 90.49676932 -19.90625 92.60546875 C-18.49303747 93.84715005 -17.10115587 95.11363553 -15.734375 96.40625 C-12.23417883 99.62264648 -8.70663292 99.21780671 -4.1875 99.25 C-3.47529297 99.270625 -2.76308594 99.29125 -2.02929688 99.3125 C2.51002703 99.34609352 5.45924155 98.90590897 9 96 C11.39407571 92.70454037 11.26843898 89.5499285 11.25 85.5625 C11.25515625 84.45003906 11.2603125 83.33757812 11.265625 82.19140625 C10.99766388 78.97193217 10.57015209 76.81732985 9 74 C6.21723 72.41392778 3.26101479 71.25168491 0.296875 70.046875 C-0.60160156 69.67433594 -1.50007813 69.30179687 -2.42578125 68.91796875 C-4.28974914 68.14711619 -6.15690485 67.38392167 -8.02734375 66.62890625 C-15.8694221 63.35111886 -23.25589545 59.29862238 -28 52 C-30.78794023 44.94933956 -31.39051559 36.83298122 -29.27734375 29.48828125 C-26.27510515 23.10700488 -22.2395517 19.47488018 -15.75 16.8125 C-13.08834713 15.69569846 -13.08834713 15.69569846 -11 14 C-10.23481283 11.34562189 -10.18769892 9.07097339 -10.18359375 6.31640625 C-10 4 -10 4 -7.75 1.375 C-3.33333333 -0.83333333 -3.33333333 -0.83333333 0 0 Z " fill="#519121" transform="translate(192,164)"/>
<path d="M0 0 C5.28 0 10.56 0 16 0 C16.53625 2.248125 17.0725 4.49625 17.625 6.8125 C20.66546876 18.53057598 26.02841369 29.4224265 36.66113281 36.03271484 C49.3066418 43.1929661 62.10584612 46.166521 76.45703125 43.3125 C83.04364794 41.2832471 88.55014639 38.18414865 94 34 C95.25296875 33.07380859 95.25296875 33.07380859 96.53125 32.12890625 C105.76040774 24.17021801 109.39898903 11.48779843 112 0 C117.28 0 122.56 0 128 0 C128 17.03916742 121.08961955 32.1612987 109.078125 44.20703125 C95.62770423 56.86138895 78.64590668 62.61368489 60.30078125 62.27734375 C42.54980603 61.4742949 27.05885369 52.44459764 14.875 40 C5.36951996 28.8556441 0 14.49761492 0 0 Z " fill="#FEA633" transform="translate(26,448)"/>
<path d="M0 0 C7.29353145 -0.11629525 14.58686019 -0.20491653 21.88113403 -0.25906086 C25.26891024 -0.28505932 28.65604812 -0.32027378 32.04345703 -0.37719727 C35.94580742 -0.43805961 39.84726047 -0.46626048 43.75 -0.48828125 C45.55827271 -0.52699089 45.55827271 -0.52699089 47.40307617 -0.56648254 C54.51085484 -0.56883599 59.61883126 0.0999274 65 5 C69.54786899 10.19503748 71.37720839 14.76575989 71.27734375 21.58984375 C70.64997704 27.04174884 68.11219187 31.30553396 64 34.875 C59.39632097 38.13593931 56.73723545 39.25099679 51.03808594 39.22705078 C49.23667145 39.22682419 49.23667145 39.22682419 47.39886475 39.22659302 C46.10708313 39.21627045 44.81530151 39.20594788 43.484375 39.1953125 C42.14487927 39.19158034 40.80538079 39.18873432 39.46588135 39.18673706 C35.94771735 39.17911657 32.4297196 39.15948187 28.91162109 39.1373291 C25.31870777 39.11683643 21.72576747 39.10772804 18.1328125 39.09765625 C11.08847383 39.07623434 4.04424779 39.04211765 -3 39 C-2.78561279 38.29907227 -2.57122559 37.59814453 -2.3503418 36.87597656 C-0.05396446 28.70127436 0.36655053 21.20669409 0.1875 12.75 C0.17396484 11.51636719 0.16042969 10.28273438 0.14648438 9.01171875 C0.11154967 6.00733396 0.06250145 3.00391591 0 0 Z " fill="#CC7400" transform="translate(153,429)"/>
<path d="M0 0 C12.66883704 4.89004432 23.57958423 18.78396414 32.23046875 29.01171875 C34.99793112 32.12129568 37.98744763 35.007829 40.94946289 37.92993164 C44.21756882 41.17102378 47.26628104 44.52727746 50.24609375 48.03125 C52.29835303 50.33489962 54.47934461 52.47070206 56.6875 54.625 C59.99579926 57.90507145 62.79893964 60.8849741 65 65 C65 66.32 65 67.64 65 69 C57.29550828 69.12701326 49.59128761 69.21444172 41.88598633 69.2746582 C39.26609202 69.29976694 36.64626752 69.33386067 34.02661133 69.37719727 C30.25584669 69.43800451 26.48601006 69.46624764 22.71484375 69.48828125 C20.96445045 69.52699089 20.96445045 69.52699089 19.17869568 69.56648254 C13.3626102 69.56847823 8.8123488 69.48394562 4.30966187 65.50958252 C-1.19894244 59.16008653 -0.39493788 51.82058095 -0.29296875 43.84765625 C-0.28872391 42.59238632 -0.28447906 41.33711639 -0.28010559 40.04380798 C-0.26620628 36.72770663 -0.23931502 33.41223948 -0.20599365 30.09631348 C-0.1751492 26.7042383 -0.16156975 23.31209726 -0.14648438 19.91992188 C-0.11347638 13.27977447 -0.06332215 6.6399238 0 0 Z " fill="#FFB656" transform="translate(339,4)"/>
<path d="M0 0 C1.20991104 -0.0112793 2.41982208 -0.02255859 3.66639709 -0.03417969 C5.00404598 -0.02640272 6.34169249 -0.01821006 7.67933655 -0.00964355 C9.09052248 -0.01506477 10.50170276 -0.02218743 11.91287231 -0.03088379 C15.74356861 -0.04912225 19.57383407 -0.04204729 23.40453792 -0.02936745 C27.41408242 -0.01924038 31.42359003 -0.02863249 35.43313599 -0.03491211 C42.16761395 -0.04219023 48.90191647 -0.03259745 55.6363678 -0.0135498 C63.41974107 0.00821054 71.2026951 0.00117453 78.98605818 -0.02085543 C85.66984993 -0.03901536 92.35351555 -0.04156462 99.03732401 -0.03110075 C103.02869541 -0.0248679 107.01986985 -0.02402414 111.01122856 -0.0372467 C114.76490429 -0.04881303 118.51804043 -0.04076585 122.27165794 -0.01766968 C123.64828852 -0.01238629 125.0249646 -0.01389014 126.401577 -0.02272034 C128.28259394 -0.03367232 130.16371026 -0.01749439 132.04467773 0 C133.09677901 0.0015081 134.14888029 0.0030162 135.23286343 0.00457001 C138.84490979 0.64186303 140.52813096 1.91535914 143.08583069 4.50793457 C143.64833069 8.00793457 143.64833069 8.00793457 143.08583069 11.50793457 C141.21874564 13.87290896 139.76521638 15.16824172 137.08583069 16.50793457 C135.22212737 16.61216945 133.35468721 16.6518222 131.48809814 16.66183472 C130.29776474 16.67043518 129.10743134 16.67903564 127.88102722 16.68789673 C125.91188858 16.69428665 125.91188858 16.69428665 123.90296936 16.70080566 C122.51178787 16.70870597 121.12060843 16.71697488 119.72943115 16.72558594 C115.15424051 16.75181345 110.57904068 16.76711387 106.00379944 16.78137207 C104.42950751 16.78673137 102.85521565 16.79210888 101.28092384 16.79750443 C94.73299929 16.81913385 88.18507721 16.83787112 81.63712597 16.84912682 C72.24922146 16.86536981 62.86173059 16.8985549 53.47398204 16.95552766 C46.87519197 16.99421108 40.27651262 17.01375756 33.67761213 17.01904738 C29.73527734 17.02270298 25.79338366 17.0347455 21.85117149 17.06715012 C18.14183914 17.09720334 14.4332154 17.103553 10.72378731 17.09176636 C8.71486409 17.09144008 6.70598478 17.11592393 4.69721985 17.1411438 C-5.12124883 17.07301297 -5.12124883 17.07301297 -8.22720337 14.19412231 C-10.44920026 10.65599469 -10.58574079 8.61198249 -9.91416931 4.50793457 C-6.9241484 0.58873481 -4.84256855 0.00694392 0 0 Z " fill="#539222" transform="translate(162.91416931152344,97.4920654296875)"/>
<path d="M0 0 C1.17769958 -0.01272446 2.35539917 -0.02544891 3.56878662 -0.03855896 C4.85722473 -0.03203308 6.14566284 -0.0255072 7.47314453 -0.01878357 C8.8465467 -0.02584241 10.21994109 -0.03458729 11.59332275 -0.04489136 C15.32063574 -0.06739821 19.04752438 -0.06444303 22.77487946 -0.05556989 C25.88636345 -0.05046123 28.99776762 -0.05775145 32.10924339 -0.06504196 C39.44871366 -0.08204468 46.78797604 -0.07847103 54.12744141 -0.06175232 C61.70073065 -0.04482417 69.27344381 -0.06067375 76.84667015 -0.0929752 C83.34871373 -0.11965775 89.85057783 -0.12695096 96.35267067 -0.11846012 C100.23620007 -0.11352768 104.11938269 -0.11576333 108.00286865 -0.13624763 C111.65403659 -0.15458465 115.30437459 -0.14867181 118.95549774 -0.12404823 C120.93471551 -0.11664209 122.9139773 -0.13391052 124.89312744 -0.15187073 C126.07082703 -0.13921677 127.24852661 -0.12656281 128.46191406 -0.11352539 C129.48543976 -0.11293908 130.50896545 -0.11235277 131.56350708 -0.1117487 C134.23095703 0.5146637 134.23095703 0.5146637 136.59152222 2.82736301 C138.23095703 5.5146637 138.23095703 5.5146637 138.23095703 9.1396637 C137.10688497 12.9334069 136.56949192 13.60479426 133.23095703 15.5146637 C130.57912445 15.89498043 130.57912445 15.89498043 127.49987793 15.90234375 C125.74594978 15.9172007 125.74594978 15.9172007 123.95658875 15.93235779 C122.67750137 15.92785614 121.398414 15.92335449 120.08056641 15.91871643 C118.71702006 15.92441997 117.35347849 15.93138418 115.98994446 15.93951416 C112.28954872 15.95746137 108.5893899 15.95627449 104.8889637 15.95057178 C101.79985961 15.94748257 98.71080121 15.95356927 95.62170362 15.95961052 C88.33500338 15.97365886 81.04842037 15.97209154 73.76171875 15.96070862 C66.24303958 15.94922291 58.72471692 15.96330974 51.20608473 15.99010509 C44.75076773 16.01225 38.29556273 16.01890235 31.84021044 16.01302868 C27.98466994 16.00965546 24.12935806 16.01209827 20.27384949 16.02927971 C16.64905459 16.04472808 13.02478871 16.0408175 9.40001488 16.02197456 C7.43511005 16.01652187 5.47018159 16.03081821 3.50532532 16.04566956 C2.33603989 16.03583542 1.16675446 16.02600128 -0.03796387 16.01586914 C-1.05411522 16.01565986 -2.07026657 16.01545057 -3.11721039 16.01523495 C-6.50871474 15.37504009 -7.69324328 14.22865008 -9.76904297 11.5146637 C-10.26904297 8.0146637 -10.26904297 8.0146637 -9.76904297 4.5146637 C-6.81775751 0.65203677 -4.78050904 0.01311009 0 0 Z " fill="#4E901E" transform="translate(218.76904296875,136.48533630371094)"/>
<path d="M0 0 C2.8125 1.75 2.8125 1.75 5 4 C5.11859375 4.66257812 5.2371875 5.32515625 5.359375 6.0078125 C5.81948013 8.18996769 5.81948013 8.18996769 7.99609375 9.1953125 C8.80175781 9.50210937 9.60742188 9.80890625 10.4375 10.125 C14.832021 11.832021 14.832021 11.832021 17 14 C17.58134861 18.40163946 17.47084939 20.33527144 14.875 24 C12 26 12 26 8.875 25.875 C6.90841391 25.2764738 4.95016025 24.65005342 3 24 C1.27204648 23.93197033 -0.45835365 23.91504355 -2.1875 23.9375 C-3.08855469 23.94652344 -3.98960938 23.95554687 -4.91796875 23.96484375 C-5.94857422 23.98224609 -5.94857422 23.98224609 -7 24 C-6.3899335 26.67135181 -5.76508719 28.4878775 -3.43164062 30.04980469 C-1.3936811 31.052165 0.66537053 31.97377753 2.75 32.875 C9.65542036 36.06893848 14.45826487 38.91652973 18 46 C19.25407524 62.81694334 19.25407524 62.81694334 14 69 C8.47044335 74 8.47044335 74 5 74 C4.87625 75.3921875 4.87625 75.3921875 4.75 76.8125 C4 80 4 80 2.375 81.9375 C-1.11319754 83.49800943 -3.36432898 82.99154664 -7 82 C-8.9375 80.1875 -8.9375 80.1875 -10 78 C-10 76.68 -10 75.36 -10 74 C-11.0209375 73.9071875 -11.0209375 73.9071875 -12.0625 73.8125 C-16.71682792 72.5251327 -20.47961053 69.90048684 -23.5 66.125 C-24.28151129 62.803577 -23.83553999 60.28247852 -23 57 C-20.80013598 54.4742302 -19.41635156 54.07240897 -16.125 53.5 C-13 54 -13 54 -10.0625 56.5 C-7.1690422 59.33164454 -7.1690422 59.33164454 -3.25 59.375 C-0.11747418 59.20113003 -0.11747418 59.20113003 2 58 C2 55.69 2 53.38 2 51 C0.88625 50.443125 -0.2275 49.88625 -1.375 49.3125 C-2.10074219 48.94511719 -2.82648438 48.57773437 -3.57421875 48.19921875 C-5.22937748 47.38096798 -6.89976553 46.59299562 -8.58203125 45.83203125 C-14.10357954 43.2740726 -17.5782291 41.0774665 -21 36 C-23.08582943 29.74251171 -23.1346802 22.39543597 -20.3125 16.4375 C-17.47544173 13.44708723 -14.70579525 10.85289762 -11 9 C-10.690625 8.05125 -10.38125 7.1025 -10.0625 6.125 C-8.14076386 0.47283489 -6.016137 -0.84225918 0 0 Z " fill="#AB6100" transform="translate(94,403)"/>
<path d="M0 0 C1.50513561 0.03516521 3.01035048 0.06709506 4.515625 0.09570312 C8.17874806 0.17230572 11.83886095 0.29279723 15.5 0.4375 C14.7069043 1.06454834 13.91380859 1.69159668 13.09667969 2.33764648 C9.24046935 5.45604298 6.09675062 8.64724815 4.5 13.4375 C4.36711786 16.14774572 4.28777396 18.83143301 4.26171875 21.54296875 C4.253647 22.34100418 4.24557526 23.13903961 4.23725891 23.96125793 C4.22343248 25.6516402 4.21270388 27.34205021 4.20483398 29.0324707 C4.19333729 30.75195561 4.17292208 32.47140548 4.14331055 34.19067383 C4.10038711 36.68335062 4.08442937 39.17496705 4.07421875 41.66796875 C4.05671066 42.42659714 4.03920258 43.18522552 4.02116394 43.96684265 C4.04357493 49.56260741 5.45762559 53.72933664 8.5 58.4375 C10.29842829 60.29484304 10.29842829 60.29484304 12.25 61.375 C13.3225 62.055625 14.395 62.73625 15.5 63.4375 C15.5 63.7675 15.5 64.0975 15.5 64.4375 C11.19504985 64.53685088 6.89071817 64.60919268 2.58496094 64.65722656 C1.12227748 64.67726332 -0.34032666 64.70450104 -1.80273438 64.73925781 C-3.9129601 64.78813225 -6.02212136 64.81054659 -8.1328125 64.828125 C-9.40012207 64.84907227 -10.66743164 64.87001953 -11.97314453 64.89160156 C-17.20813519 64.21756843 -20.23230244 61.81083902 -23.75 58 C-27.30407066 52.7958251 -27.80817437 48.26947804 -27.80078125 42.06640625 C-27.80720894 40.86648293 -27.80720894 40.86648293 -27.81376648 39.64231873 C-27.81949279 37.95548445 -27.8200226 36.2686255 -27.81567383 34.58178711 C-27.81251448 32.01177538 -27.83599104 29.44291645 -27.86132812 26.87304688 C-27.86360148 25.22916811 -27.86430444 23.58528627 -27.86328125 21.94140625 C-27.872491 21.1787294 -27.88170074 20.41605255 -27.89118958 19.63026428 C-27.83566014 13.17425986 -25.90824388 8.29582641 -21.34375 3.58984375 C-15.2520459 -1.47681399 -7.45525839 -0.30354487 0 0 Z " fill="#1E81CD" transform="translate(316.5,205.5625)"/>
<path d="M0 0 C0.71353638 -0.00241196 1.42707275 -0.00482391 2.16223145 -0.00730896 C3.66501444 -0.0063331 5.16783454 0.0069986 6.67041016 0.03198242 C8.96251287 0.06631283 11.25075972 0.05262863 13.54296875 0.03320312 C15.00782881 0.04010207 16.47267897 0.04977492 17.9375 0.0625 C18.61784302 0.05754013 19.29818604 0.05258026 19.99914551 0.04747009 C24.7218535 0.16357381 27.18359643 1.24904763 30.46875 4.62890625 C32.15941316 9.70089573 31.6940702 15.08974433 31.70898438 20.39794922 C31.71868395 22.48966331 31.74971762 24.58039162 31.78125 26.671875 C31.7877814 28.00910878 31.79303133 29.34634955 31.796875 30.68359375 C31.81089355 32.50093018 31.81089355 32.50093018 31.82519531 34.35498047 C31.4319249 37.9671423 30.7095859 39.79021888 28.46875 42.62890625 C23.69970109 46.14798404 16.87558636 45.00080451 11.19702148 44.99951172 C9.04135159 45.00388575 6.88772995 45.04023055 4.73242188 45.078125 C3.35417363 45.08399385 1.97591571 45.08796279 0.59765625 45.08984375 C-1.27297485 45.10217041 -1.27297485 45.10217041 -3.18139648 45.11474609 C-7.11157577 44.54473977 -8.73856896 43.39421123 -11.53125 40.62890625 C-13.77459174 36.14222277 -12.84244375 29.63484219 -12.88134766 24.65356445 C-12.89789362 23.10067748 -12.92516642 21.54786625 -12.96337891 19.99536133 C-13.01829414 17.75171584 -13.04004138 15.509853 -13.0546875 13.265625 C-13.07735687 12.57587082 -13.10002625 11.88611664 -13.12338257 11.17546082 C-13.10744468 7.51901097 -12.58449745 5.7047741 -10.46923828 2.69091797 C-6.90707574 0.19083281 -4.20574947 -0.0819597 0 0 Z " fill="#328047" transform="translate(371.53125,434.37109375)"/>
<path d="M0 0 C0.71353638 -0.00241196 1.42707275 -0.00482391 2.16223145 -0.00730896 C3.66501444 -0.0063331 5.16783454 0.0069986 6.67041016 0.03198242 C8.96251287 0.06631283 11.25075972 0.05262863 13.54296875 0.03320312 C15.00782881 0.04010207 16.47267897 0.04977492 17.9375 0.0625 C18.61784302 0.05754013 19.29818604 0.05258026 19.99914551 0.04747009 C24.7218535 0.16357381 27.18359643 1.24904763 30.46875 4.62890625 C32.15941316 9.70089573 31.6940702 15.08974433 31.70898438 20.39794922 C31.71868395 22.48966331 31.74971762 24.58039162 31.78125 26.671875 C31.7877814 28.00910878 31.79303133 29.34634955 31.796875 30.68359375 C31.81089355 32.50093018 31.81089355 32.50093018 31.82519531 34.35498047 C31.4319249 37.9671423 30.7095859 39.79021888 28.46875 42.62890625 C23.69970109 46.14798404 16.87558636 45.00080451 11.19702148 44.99951172 C9.04135159 45.00388575 6.88772995 45.04023055 4.73242188 45.078125 C3.35417363 45.08399385 1.97591571 45.08796279 0.59765625 45.08984375 C-1.27297485 45.10217041 -1.27297485 45.10217041 -3.18139648 45.11474609 C-7.11157577 44.54473977 -8.73856896 43.39421123 -11.53125 40.62890625 C-13.77459174 36.14222277 -12.84244375 29.63484219 -12.88134766 24.65356445 C-12.89789362 23.10067748 -12.92516642 21.54786625 -12.96337891 19.99536133 C-13.01829414 17.75171584 -13.04004138 15.509853 -13.0546875 13.265625 C-13.07735687 12.57587082 -13.10002625 11.88611664 -13.12338257 11.17546082 C-13.10744468 7.51901097 -12.58449745 5.7047741 -10.46923828 2.69091797 C-6.90707574 0.19083281 -4.20574947 -0.0819597 0 0 Z " fill="#327F47" transform="translate(371.53125,368.37109375)"/>
<path d="M0 0 C0.71353638 -0.00241196 1.42707275 -0.00482391 2.16223145 -0.00730896 C3.66501444 -0.0063331 5.16783454 0.0069986 6.67041016 0.03198242 C8.96251287 0.06631283 11.25075972 0.05262863 13.54296875 0.03320312 C15.00782881 0.04010207 16.47267897 0.04977492 17.9375 0.0625 C18.61784302 0.05754013 19.29818604 0.05258026 19.99914551 0.04747009 C24.72948346 0.16376139 27.13762226 1.3012776 30.46875 4.62890625 C32.65589391 9.00319406 31.69585621 14.8885076 31.70898438 19.74975586 C31.7186669 21.92275608 31.74967826 24.09480088 31.78125 26.26757812 C31.78778269 27.65494231 31.79303212 29.04231325 31.796875 30.4296875 C31.81089355 32.31941284 31.81089355 32.31941284 31.82519531 34.24731445 C31.43776535 37.9228572 30.75675582 39.75145794 28.46875 42.62890625 C23.69970109 46.14798404 16.87558636 45.00080451 11.19702148 44.99951172 C9.04135159 45.00388575 6.88772995 45.04023055 4.73242188 45.078125 C3.35417363 45.08399385 1.97591571 45.08796279 0.59765625 45.08984375 C-1.27297485 45.10217041 -1.27297485 45.10217041 -3.18139648 45.11474609 C-7.12925263 44.54217604 -8.76180278 43.45296949 -11.53125 40.62890625 C-13.30449695 35.3091654 -12.83619102 29.57672424 -12.88134766 24.00537109 C-12.89791136 22.50781722 -12.92520771 21.01034254 -12.96337891 19.51318359 C-13.01829638 17.34561497 -13.04003833 15.17989031 -13.0546875 13.01171875 C-13.07450684 11.71637207 -13.09432617 10.42102539 -13.11474609 9.08642578 C-12.53125 5.62890625 -12.53125 5.62890625 -10.46923828 2.70678711 C-6.90759049 0.18782547 -4.21418636 -0.08212411 0 0 Z " fill="#317F46" transform="translate(301.53125,368.37109375)"/>
<path d="M0 0 C1.03488808 -0.00361794 1.03488808 -0.00361794 2.09068298 -0.00730896 C3.54041325 -0.00633485 4.99018273 0.0069546 6.43969727 0.03198242 C8.65054239 0.06637822 10.8574019 0.05260395 13.06835938 0.03320312 C14.48308981 0.04010064 15.89781001 0.04977218 17.3125 0.0625 C18.58875244 0.07337646 19.86500488 0.08425293 21.17993164 0.09545898 C25.12476964 0.71259015 26.78281077 1.84593448 29.58984375 4.62890625 C31.77404601 8.99731076 30.8581789 14.84227021 30.88500977 19.69482422 C30.90217067 21.85709807 30.94604917 24.01782132 30.99023438 26.1796875 C31.00036651 27.56379087 31.00888098 28.94790722 31.015625 30.33203125 C31.03020752 31.58661133 31.04479004 32.84119141 31.05981445 34.13378906 C30.50217375 38.28089779 29.24413236 40.42732618 26.58984375 43.62890625 C21.39427933 45.36076106 15.83310007 44.89390729 10.39355469 44.92407227 C8.94456219 44.93560056 7.49561244 44.95606626 6.046875 44.9855957 C3.94892643 45.02834761 1.85223673 45.04444906 -0.24609375 45.0546875 C-1.4995459 45.06927002 -2.75299805 45.08385254 -4.04443359 45.09887695 C-8.01152558 44.5449344 -9.63274274 43.46692137 -12.41015625 40.62890625 C-14.18428398 35.30652305 -13.75474419 29.57940689 -13.81518555 24.00537109 C-13.83678442 22.50774096 -13.87091108 21.01023771 -13.91772461 19.51318359 C-13.98482422 17.34546034 -14.01218962 15.18033458 -14.03125 13.01171875 C-14.05630615 11.71637207 -14.0813623 10.42102539 -14.10717773 9.08642578 C-13.35135906 5.33724747 -12.30321599 3.75782565 -9.18254089 1.5246582 C-6.13304394 -0.01653821 -3.37859592 -0.00191784 0 0 Z " fill="#317F46" transform="translate(302.41015625,434.37109375)"/>
<path d="M0 0 C2.01930038 -0.00969885 4.03757924 -0.04073319 6.05664062 -0.07226562 C7.33539063 -0.07742188 8.61414063 -0.08257812 9.93164062 -0.08789062 C11.68613525 -0.10190918 11.68613525 -0.10190918 13.47607422 -0.11621094 C17.88590875 0.37775549 20.31398076 1.92248104 23.44360352 4.99047852 C25.94628903 9.62610606 25.13541053 15.34663442 25.10424805 20.51196289 C25.09574231 22.66780215 25.12450328 24.82098514 25.15625 26.9765625 C25.15786244 28.35481692 25.15728366 29.733076 25.15429688 31.11132812 C25.15707642 32.98195923 25.15707642 32.98195923 25.15991211 34.89038086 C24.57259275 38.81184509 23.41825999 40.44992855 20.65820312 43.24023438 C16.17151965 45.48357611 9.66413906 44.55142812 4.68286133 44.59033203 C3.12997436 44.60687799 1.57716312 44.63415079 0.0246582 44.67236328 C-2.21898729 44.72727852 -4.46085013 44.74902575 -6.70507812 44.76367188 C-7.39483231 44.78634125 -8.08458649 44.80901062 -8.79524231 44.83236694 C-12.45169215 44.81642906 -14.26592903 44.29348183 -17.27978516 42.17822266 C-19.77987032 38.61606011 -20.05266282 35.91473384 -19.97070312 31.70898438 C-19.97311508 30.995448 -19.97552704 30.28191162 -19.97801208 29.54675293 C-19.97703623 28.04396994 -19.96370453 26.54114984 -19.9387207 25.03857422 C-19.90439029 22.7464715 -19.9180745 20.45822465 -19.9375 18.16601562 C-19.93060105 16.70115557 -19.9209282 15.23630541 -19.90820312 13.77148438 C-19.91316299 13.09114136 -19.91812286 12.41079834 -19.92323303 11.70983887 C-19.80712931 6.98713088 -18.7216555 4.52538794 -15.34179688 1.24023438 C-10.37289169 -0.41606735 -5.20382677 0.01514208 0 0 Z " fill="#328047" transform="translate(378.341796875,298.759765625)"/>
<path d="M0 0 C2.10058559 -0.00968123 4.20018223 -0.04069247 6.30053711 -0.07226562 C7.64232819 -0.07879848 8.98412625 -0.08404785 10.32592773 -0.08789062 C11.5438501 -0.09723633 12.76177246 -0.10658203 14.01660156 -0.11621094 C17.63815926 0.27618047 19.46185599 0.99252385 22.30639648 3.24023438 C25.82547428 8.00928328 24.67829474 14.83339801 24.67700195 20.51196289 C24.68137599 22.66763278 24.71772079 24.82125442 24.75561523 26.9765625 C24.76148408 28.35481075 24.76545302 29.73306866 24.76733398 31.11132812 C24.77555176 32.35841553 24.78376953 33.60550293 24.79223633 34.89038086 C24.22223 38.82056014 23.07170146 40.44755333 20.30639648 43.24023438 C17.33688509 44.72499007 14.2914859 44.4440782 11.03295898 44.47851562 C10.31280609 44.48658737 9.5926532 44.49465912 8.85067749 44.50297546 C7.32585047 44.51681052 5.80099255 44.52753527 4.27612305 44.53540039 C1.94707447 44.55261847 -0.38055602 44.59650642 -2.70922852 44.640625 C-4.19098892 44.65075182 -5.67276138 44.65926796 -7.15454102 44.66601562 C-7.84945648 44.68352371 -8.54437195 44.7010318 -9.26034546 44.71907043 C-12.67296472 44.70380291 -14.38766349 44.48176761 -17.10229492 42.33862305 C-21.01599369 37.17780056 -19.9935522 30.91399972 -20.04370117 24.69213867 C-20.0602454 23.18774936 -20.08751603 21.68343818 -20.12573242 20.17944336 C-20.18066559 18.00528396 -20.20239722 15.83296416 -20.21704102 13.65820312 C-20.23686035 12.3564917 -20.25667969 11.05478027 -20.27709961 9.71362305 C-19.54920578 5.38067516 -18.05733178 3.96372014 -14.69360352 1.24023438 C-10.41881706 -0.89715886 -4.74623133 0.01325609 0 0 Z " fill="#328047" transform="translate(308.693603515625,298.759765625)"/>
<path d="M0 0 C1.31162109 0.00257813 2.62324219 0.00515625 3.97460938 0.0078125 C4.98841675 0.02956543 4.98841675 0.02956543 6.02270508 0.05175781 C8.08836941 0.09372005 10.15077672 0.09281196 12.21679688 0.0859375 C24.64176408 0.20817033 24.64176408 0.20817033 30.02734375 5.59375 C30.26375765 8.11593782 30.37956438 10.52495563 30.3984375 13.05078125 C30.41198021 14.16074715 30.41198021 14.16074715 30.42579651 15.2931366 C30.44031514 16.86082913 30.44918976 18.42858248 30.45288086 19.99633789 C30.46474959 22.38728126 30.51388753 24.77561958 30.56445312 27.16601562 C30.5739208 28.69009159 30.58115419 30.21418339 30.5859375 31.73828125 C30.60546982 32.44990921 30.62500214 33.16153717 30.64512634 33.89472961 C30.61183232 37.58622807 30.0986846 39.49102428 27.97900391 42.54321289 C24.34894186 45.06504011 21.51736856 45.31915727 17.2421875 45.2578125 C16.13503136 45.26498795 16.13503136 45.26498795 15.00550842 45.27230835 C13.45148577 45.27569843 11.89739095 45.26655818 10.34350586 45.24560547 C7.96762138 45.21878136 5.5964431 45.24539525 3.22070312 45.27734375 C1.70702085 45.27404023 0.1933415 45.26763518 -1.3203125 45.2578125 C-2.38137962 45.27299423 -2.38137962 45.27299423 -3.46388245 45.28848267 C-6.97238136 45.20523763 -8.70502317 44.81932531 -11.41333008 42.53662109 C-13.33010137 38.91915419 -13.58460965 35.84671419 -13.57421875 31.84375 C-13.58707413 30.74015137 -13.58707413 30.74015137 -13.60018921 29.61425781 C-13.61163408 28.06449486 -13.61270692 26.51462452 -13.60400391 24.96484375 C-13.59767217 22.59969492 -13.644658 20.23953227 -13.6953125 17.875 C-13.69985831 16.36458961 -13.70126555 14.85416584 -13.69921875 13.34375 C-13.71763824 12.6415332 -13.73605774 11.93931641 -13.7550354 11.21582031 C-13.67980402 7.20477744 -13.04932599 5.68033968 -10.36303711 2.64648438 C-6.52181432 0.32078399 -4.45265241 -0.02644842 0 0 Z " fill="#FC9812" transform="translate(442.97265625,298.40625)"/>
<path d="M0 0 C0 0.33 0 0.66 0 1 C-0.90878906 1.22042969 -0.90878906 1.22042969 -1.8359375 1.4453125 C-14.49674526 4.83451335 -24.19123849 11.77192011 -31.3125 22.8125 C-38.15366895 35.09677885 -38.83834433 48.90355197 -35.4375 62.375 C-31.75203125 73.71490385 -24.27907779 83.19118023 -13.640625 88.7578125 C-11.38234325 89.79662211 -9.10953377 90.80471266 -6.8203125 91.7734375 C-4 93 -4 93 -1 95 C-15.92950077 95.79506217 -27.63586281 92.46974759 -39.375 83.10546875 C-49.06073506 74.28686875 -54.06768996 62.51438545 -55.2109375 49.62109375 C-55.75494302 36.58588453 -51.3963086 25.10301595 -43.375 14.94140625 C-30.83635421 1.40810827 -17.36003126 -0.50563198 0 0 Z " fill="#CC7400" transform="translate(97,398)"/>
<path d="M0 0 C8.91 0 17.82 0 27 0 C27 12.54 27 25.08 27 38 C20.5340625 38.2784375 20.5340625 38.2784375 13.9375 38.5625 C12.59163818 38.64443604 11.24577637 38.72637207 9.85913086 38.81079102 C1.14781244 38.99229037 1.14781244 38.99229037 -2.25952148 36.04663086 C-4.0625 33.625 -4.0625 33.625 -5.4765625 31.19921875 C-8.02879397 27.51484357 -11.85644578 26.34360148 -16 25 C-13.9896084 22.9896084 -12.68600059 22.35171346 -10.125 21.25 C-5.93422238 19.1470192 -4.00022727 17.38511362 -2 13 C-1.34 8.71 -0.68 4.42 0 0 Z " fill="#FEC376" transform="translate(223,404)"/>
<path d="M0 0 C0.33 0 0.66 0 1 0 C1.08132642 3.04221065 1.14065374 6.0822238 1.1875 9.125 C1.21263672 9.9809375 1.23777344 10.836875 1.26367188 11.71875 C1.3237682 16.92709812 0.92830251 20.49973463 -2 25 C-7.93891726 30.49349847 -13.11152519 30.23782991 -20.8125 30.3125 C-21.79798828 30.34150391 -22.78347656 30.37050781 -23.79882812 30.40039062 C-29.70333268 30.45194103 -33.46777574 30.18519331 -38 26 C-42.56221974 20.90904619 -42.50397643 16.61116724 -42.25 10.125 C-42.23195313 9.24585938 -42.21390625 8.36671875 -42.1953125 7.4609375 C-42.14848379 5.3068168 -42.07674994 3.15326226 -42 1 C-41.46375 1.7425 -40.9275 2.485 -40.375 3.25 C-37.15214902 6.98172218 -34.50932966 9.62939131 -29.4609375 10.375 C-26.46302636 10.5383739 -23.50181352 10.54553952 -20.5 10.5 C-19.48035156 10.51546875 -18.46070313 10.5309375 -17.41015625 10.546875 C-11.32454042 10.5152203 -7.57591583 10.14366319 -3 6 C-1.11431306 2.89985071 -1.11431306 2.89985071 0 0 Z " fill="#EC8701" transform="translate(472,449)"/>
<path d="M0 0 C0.99 0.495 0.99 0.495 2 1 C2 1.66 2 2.32 2 3 C5.50381797 4.16793932 8.68853889 4.18068143 12.3359375 4.203125 C13.05230377 4.20882507 13.76867004 4.21452515 14.50674438 4.22039795 C16.02140837 4.22983536 17.53609277 4.23637693 19.05078125 4.24023438 C21.35974203 4.24993589 23.66781069 4.28096775 25.9765625 4.3125 C27.45051557 4.31903105 28.92447498 4.32428112 30.3984375 4.328125 C31.42836319 4.3466452 31.42836319 4.3466452 32.47909546 4.36553955 C36.8323403 4.34545957 39.48412134 3.56887204 43 1 C43.10806144 3.91765891 43.18732877 6.83131125 43.25 9.75 C43.30027344 10.9875 43.30027344 10.9875 43.3515625 12.25 C43.45075974 18.40022878 43.45075974 18.40022878 41.109375 21.515625 C35.92358588 25.16488401 29.99926155 24.26142173 23.87915039 24.29516602 C21.70589761 24.31235449 19.53417654 24.35623807 17.36132812 24.40039062 C15.9739695 24.41052026 14.58659796 24.41903552 13.19921875 24.42578125 C11.93940186 24.44036377 10.67958496 24.45494629 9.3815918 24.4699707 C5.40386301 23.9171494 3.78304147 22.84672369 1 20 C0.09761253 17.29283758 -0.11851302 15.76223232 -0.09765625 12.98828125 C-0.09443359 12.23095703 -0.09121094 11.47363281 -0.08789062 10.69335938 C-0.07951172 9.90767578 -0.07113281 9.12199219 -0.0625 8.3125 C-0.05798828 7.51521484 -0.05347656 6.71792969 -0.04882812 5.89648438 C-0.0370585 3.93095743 -0.01912348 1.96546915 0 0 Z " fill="#2D7440" transform="translate(289,389)"/>
<path d="M0 0 C0.66966797 0.64976807 1.33933594 1.29953613 2.02929688 1.96899414 C5.61827066 4.42269836 8.33739005 4.56534372 12.53125 4.49609375 C13.24478638 4.49754898 13.95832275 4.49900421 14.69348145 4.50050354 C16.19624939 4.49884973 17.69903517 4.48734641 19.20166016 4.46655273 C21.49324978 4.43758533 23.78252446 4.445955 26.07421875 4.45898438 C27.53907367 4.45274631 29.00392133 4.44435482 30.46875 4.43359375 C31.14909302 4.43652939 31.82943604 4.43946503 32.53039551 4.44248962 C36.8421579 4.35758773 39.5109658 3.53240415 43 1 C43.10806144 3.91765891 43.18732877 6.83131125 43.25 9.75 C43.30027344 10.9875 43.30027344 10.9875 43.3515625 12.25 C43.45075974 18.40022878 43.45075974 18.40022878 41.109375 21.515625 C35.92358588 25.16488401 29.99926155 24.26142173 23.87915039 24.29516602 C21.70589761 24.31235449 19.53417654 24.35623807 17.36132812 24.40039062 C15.9739695 24.41052026 14.58659796 24.41903552 13.19921875 24.42578125 C11.93940186 24.44036377 10.67958496 24.45494629 9.3815918 24.4699707 C5.4211054 23.91954573 3.80680187 22.78798822 1 20 C-0.1482685 17.703463 -0.11561175 16.41686833 -0.09765625 13.8671875 C-0.09443359 13.06152344 -0.09121094 12.25585938 -0.08789062 11.42578125 C-0.07951172 10.58402344 -0.07113281 9.74226563 -0.0625 8.875 C-0.05798828 8.02550781 -0.05347656 7.17601562 -0.04882812 6.30078125 C-0.03702874 4.20049091 -0.01909306 2.1002367 0 0 Z " fill="#2C733F" transform="translate(359,455)"/>
<path d="M0 0 C0.66966797 0.64976807 1.33933594 1.29953613 2.02929688 1.96899414 C5.61827066 4.42269836 8.33739005 4.56534372 12.53125 4.49609375 C13.24478638 4.49754898 13.95832275 4.49900421 14.69348145 4.50050354 C16.19624939 4.49884973 17.69903517 4.48734641 19.20166016 4.46655273 C21.49324978 4.43758533 23.78252446 4.445955 26.07421875 4.45898438 C27.53907367 4.45274631 29.00392133 4.44435482 30.46875 4.43359375 C31.14909302 4.43652939 31.82943604 4.43946503 32.53039551 4.44248962 C36.8421579 4.35758773 39.5109658 3.53240415 43 1 C43.10806144 3.91765891 43.18732877 6.83131125 43.25 9.75 C43.30027344 10.9875 43.30027344 10.9875 43.3515625 12.25 C43.45075974 18.40022878 43.45075974 18.40022878 41.109375 21.515625 C35.92358588 25.16488401 29.99926155 24.26142173 23.87915039 24.29516602 C21.70589761 24.31235449 19.53417654 24.35623807 17.36132812 24.40039062 C15.9739695 24.41052026 14.58659796 24.41903552 13.19921875 24.42578125 C11.93940186 24.44036377 10.67958496 24.45494629 9.3815918 24.4699707 C5.4211054 23.91954573 3.80680187 22.78798822 1 20 C-0.1482685 17.703463 -0.11561175 16.41686833 -0.09765625 13.8671875 C-0.09443359 13.06152344 -0.09121094 12.25585938 -0.08789062 11.42578125 C-0.07951172 10.58402344 -0.07113281 9.74226563 -0.0625 8.875 C-0.05798828 8.02550781 -0.05347656 7.17601562 -0.04882812 6.30078125 C-0.03702874 4.20049091 -0.01909306 2.1002367 0 0 Z " fill="#2D7440" transform="translate(359,389)"/>
<path d="M0 0 C0.99664673 0.9746521 0.99664673 0.9746521 2.01342773 1.96899414 C5.67463347 4.45878165 8.51270087 4.56413998 12.78515625 4.49609375 C13.89231239 4.4982766 13.89231239 4.4982766 15.02183533 4.50050354 C16.57587651 4.49884957 18.12993492 4.48734451 19.68383789 4.46655273 C22.05881403 4.43754502 24.43156267 4.44596284 26.80664062 4.45898438 C28.32032331 4.45274773 29.83399898 4.44435736 31.34765625 4.43359375 C32.05503433 4.43652939 32.76241241 4.43946503 33.4912262 4.44248962 C37.60189884 4.36399612 40.00862159 3.89539322 43 1 C43.08103404 3.91722548 43.14051081 6.83219516 43.1875 9.75 C43.21263672 10.575 43.23777344 11.4 43.26367188 12.25 C43.33756769 18.35872096 43.33756769 18.35872096 41.67578125 21.515625 C37.05486583 25.60874355 29.64158774 24.26279209 23.80371094 24.29516602 C22.35471844 24.30669431 20.90576869 24.32716001 19.45703125 24.35668945 C17.35908268 24.39944136 15.26239298 24.41554281 13.1640625 24.42578125 C11.91061035 24.44036377 10.6571582 24.45494629 9.36572266 24.4699707 C5.39863067 23.91602815 3.77741351 22.83801512 1 20 C0.09761253 17.29283758 -0.11851302 15.76223232 -0.09765625 12.98828125 C-0.09443359 12.23095703 -0.09121094 11.47363281 -0.08789062 10.69335938 C-0.07951172 9.90767578 -0.07113281 9.12199219 -0.0625 8.3125 C-0.05798828 7.51521484 -0.05347656 6.71792969 -0.04882812 5.89648438 C-0.0370585 3.93095743 -0.01912348 1.96546915 0 0 Z " fill="#2C743F" transform="translate(289,455)"/>
<path d="M0 0 C0.33 0 0.66 0 1 0 C1.13530844 3.06398451 1.2342407 6.12197126 1.3125 9.1875 C1.35439453 10.05181641 1.39628906 10.91613281 1.43945312 11.80664062 C1.45556641 12.64775391 1.47167969 13.48886719 1.48828125 14.35546875 C1.51446533 15.12528076 1.54064941 15.89509277 1.56762695 16.68823242 C0.67508829 20.32326406 -1.05699511 21.75871753 -4 24 C-6.8037576 24.50036754 -8.99047393 24.70416352 -11.78515625 24.6640625 C-12.89231239 24.67123795 -12.89231239 24.67123795 -14.02183533 24.67855835 C-15.57585798 24.68194843 -17.1299528 24.67280818 -18.68383789 24.65185547 C-21.05972237 24.62503136 -23.43090065 24.65164525 -25.80664062 24.68359375 C-27.3203229 24.68029023 -28.83400225 24.67388518 -30.34765625 24.6640625 C-31.05503433 24.67418365 -31.76241241 24.68430481 -32.4912262 24.69473267 C-36.15101904 24.60789793 -37.72959448 24.24958233 -40.45385742 21.73510742 C-42.00732125 18.98704881 -42.47977307 17.67211418 -42.390625 14.57421875 C-42.37773437 13.77822266 -42.36484375 12.98222656 -42.3515625 12.16210938 C-42.31804687 11.34548828 -42.28453125 10.52886719 -42.25 9.6875 C-42.23195313 8.85154297 -42.21390625 8.01558594 -42.1953125 7.15429688 C-42.14841126 5.10236772 -42.07667411 3.05103244 -42 1 C-41.15832275 1.64831787 -40.31664551 2.29663574 -39.44946289 2.96459961 C-35.92448803 5.30338713 -33.05866123 5.52899124 -28.80859375 5.56640625 C-27.80699974 5.57570412 -27.80699974 5.57570412 -26.78517151 5.58518982 C-25.38259326 5.59225227 -23.97993056 5.58917664 -22.57739258 5.57641602 C-20.43869553 5.56250777 -18.30434663 5.59670829 -16.16601562 5.63476562 C-14.79687394 5.63571665 -13.42772681 5.6338589 -12.05859375 5.62890625 C-10.82423584 5.62963135 -9.58987793 5.63035645 -8.31811523 5.63110352 C-4.15778335 4.8398109 -2.71639332 3.15094122 0 0 Z " fill="#ED8700" transform="translate(472,319)"/>
<path d="M0 0 C0.84175781 0.65226562 1.68351562 1.30453125 2.55078125 1.9765625 C8.00096404 5.0850735 14.02121708 4.52403235 20.12573242 4.41162109 C22.19304355 4.37490154 24.25856712 4.37060385 26.32617188 4.37109375 C35.52931795 4.61215155 35.52931795 4.61215155 43 0 C43.14554346 3.08283443 43.23413821 6.16478439 43.3125 9.25 C43.35439453 10.12269531 43.39628906 10.99539063 43.43945312 11.89453125 C43.45556641 12.73886719 43.47167969 13.58320313 43.48828125 14.453125 C43.51446533 15.22817383 43.54064941 16.00322266 43.56762695 16.80175781 C42.68110761 20.2349708 40.99761942 21.21457078 38 23 C35.34655404 23.40240002 33.11608403 23.58570597 30.46875 23.56640625 C29.75521362 23.57260483 29.04167725 23.57880341 28.30651855 23.58518982 C26.80380614 23.59226704 25.30101497 23.58915055 23.79833984 23.57641602 C21.50601356 23.56253641 19.2177639 23.59665607 16.92578125 23.63476562 C15.46093651 23.63571685 13.99608668 23.63385782 12.53125 23.62890625 C11.51073547 23.64879356 11.51073547 23.64879356 10.46960449 23.66908264 C6.71819755 23.59609431 5.06393138 23.04920004 2.05981445 20.73730469 C-0.04010783 17.94670037 -0.61044014 16.97023591 -0.48828125 13.57421875 C-0.47216797 12.77822266 -0.45605469 11.98222656 -0.43945312 11.16210938 C-0.37661133 9.93717773 -0.37661133 9.93717773 -0.3125 8.6875 C-0.28994141 7.85154297 -0.26738281 7.01558594 -0.24414062 6.15429688 C-0.1855061 4.10208851 -0.09583215 2.05080798 0 0 Z " fill="#2C733F" transform="translate(359,320)"/>
<path d="M0 0 C0.84175781 0.65226562 1.68351562 1.30453125 2.55078125 1.9765625 C8.00096404 5.0850735 14.02121708 4.52403235 20.12573242 4.41162109 C22.19304355 4.37490154 24.25856712 4.37060385 26.32617188 4.37109375 C35.52931795 4.61215155 35.52931795 4.61215155 43 0 C43.14554346 3.08283443 43.23413821 6.16478439 43.3125 9.25 C43.35439453 10.12269531 43.39628906 10.99539063 43.43945312 11.89453125 C43.45556641 12.73886719 43.47167969 13.58320313 43.48828125 14.453125 C43.51446533 15.22817383 43.54064941 16.00322266 43.56762695 16.80175781 C42.68061258 20.23688788 41.00109923 21.2160741 38 23 C35.33395289 23.39052165 33.09159085 23.56273826 30.43359375 23.53125 C29.7176857 23.5350769 29.00177765 23.53890381 28.26417542 23.54284668 C26.75723863 23.54555816 25.25025416 23.53825039 23.7434082 23.52148438 C21.44050134 23.50002796 19.14070219 23.52132369 16.83789062 23.546875 C15.36978481 23.5442322 13.90168092 23.5391082 12.43359375 23.53125 C11.74808945 23.53934692 11.06258514 23.54744385 10.35630798 23.55578613 C6.97879238 23.48968405 5.27646808 23.21962339 2.59790039 21.09179688 C-0.5338507 16.99204999 -0.11497856 13.34835316 -0.0625 8.375 C-0.05798828 7.57320313 -0.05347656 6.77140625 -0.04882812 5.9453125 C-0.03703168 3.96350994 -0.01909605 1.98174567 0 0 Z " fill="#2C733F" transform="translate(289,320)"/>
<path d="M0 0 C1.24716797 0.00902344 2.49433594 0.01804687 3.77929688 0.02734375 C6.83223504 0.05073791 9.88476306 0.08351826 12.9375 0.125 C10.14442016 1.6456768 8.29820873 2.23842265 5.0625 2.8125 C-5.97604729 5.15841862 -19.39815502 12.1720006 -25.78955078 21.69946289 C-26.35657715 22.5733667 -26.92360352 23.44727051 -27.5078125 24.34765625 C-29.96933023 27.47591897 -31.25959667 28.91412171 -35.14208984 29.93383789 C-38.66445 30.10815437 -42.04529236 30.00122912 -45.5625 29.75 C-46.76648438 29.70488281 -47.97046875 29.65976562 -49.2109375 29.61328125 C-52.16666983 29.49599028 -55.11193621 29.33220251 -58.0625 29.125 C-50.15839903 14.6717868 -36.7745504 6.32981462 -21.18676758 1.54980469 C-14.17180029 -0.28885772 -7.20716625 -0.09962059 0 0 Z " fill="#CC7400" transform="translate(69.0625,380.875)"/>
<path d="M0 0 C21.23607395 -1.90721217 21.23607395 -1.90721217 27.03808594 1.03271484 C30.20095826 3.68213387 32.37610303 7.06058624 34.72607422 10.41796875 C42.67862242 20.29388143 58.12729215 24.84540652 70 27 C70 27.33 70 27.66 70 28 C45.74290967 28.71660533 26.75848183 26.75005805 7.69140625 10.5625 C4.82901049 7.83720012 2.40087781 5.1372632 0 2 C0 1.34 0 0.68 0 0 Z " fill="#CC7300" transform="translate(12,482)"/>
<path d="M0 0 C1.04269043 -0.00574036 1.04269043 -0.00574036 2.10644531 -0.01159668 C3.57228041 -0.0143118 5.03816428 -0.00697835 6.50390625 0.00976562 C8.74328975 0.03118581 10.97946587 0.00995557 13.21875 -0.015625 C14.64584039 -0.01298165 16.07292879 -0.0078565 17.5 0 C19.44132812 0.00676758 19.44132812 0.00676758 21.421875 0.01367188 C25.27206971 0.61244042 26.46733319 1.428514 28.75 4.53125 C29.3125 7.46875 29.3125 7.46875 28.75 10.53125 C26.11617994 13.87406894 24.63346654 15.36480725 20.40014648 16.16235352 C18.52951538 16.16126587 18.52951538 16.16126587 16.62109375 16.16015625 C15.94957779 16.16256821 15.27806183 16.16498016 14.5861969 16.16746521 C13.17337103 16.16648991 11.76050544 16.15317141 10.34790039 16.12817383 C8.18959566 16.09378339 6.03537257 16.10754332 3.87695312 16.12695312 C2.49998264 16.12005581 1.12302268 16.11038443 -0.25390625 16.09765625 C-1.49986572 16.08677979 -2.7458252 16.07590332 -4.02954102 16.06469727 C-7.80662782 15.43904836 -9.0141765 14.59373576 -11.25 11.53125 C-11.79876203 7.68991579 -11.97970045 5.54181287 -9.671875 2.34570312 C-6.35899502 -0.13628518 -4.1135348 0.01434001 0 0 Z " fill="#4F901F" transform="translate(164.25,136.46875)"/>
<path d="M0 0 C1.6387207 -0.0009668 1.6387207 -0.0009668 3.31054688 -0.00195312 C4.44685547 0.01802734 5.58316406 0.03800781 6.75390625 0.05859375 C7.88634766 0.05150391 9.01878906 0.04441406 10.18554688 0.03710938 C19.8884319 0.11143908 19.8884319 0.11143908 24.31640625 3.49609375 C25.37890625 6.87109375 25.37890625 6.87109375 25.31640625 10.49609375 C23.54999453 13.29798821 22.28590803 15.01134286 19.31640625 16.49609375 C15.38571467 16.81858273 11.44619006 16.82052218 7.50390625 16.87109375 C6.41013672 16.90847656 5.31636719 16.94585937 4.18945312 16.984375 C-3.87479067 17.07283106 -3.87479067 17.07283106 -7.91015625 14.1953125 C-10.23586181 10.65552716 -10.36381614 8.65300838 -9.68359375 4.49609375 C-6.74590963 0.67723247 -4.74824762 -0.00884647 0 0 Z " fill="#549223" transform="translate(331.68359375,97.50390625)"/>
<path d="M0 0 C8.25 0 16.5 0 25 0 C27.31 4.95 29.62 9.9 32 15 C27.78738656 15.27042454 23.59207887 15.46814797 19.375 15.625 C17.59029297 15.75068359 17.59029297 15.75068359 15.76953125 15.87890625 C12.25775553 15.97700054 9.39154434 15.93174295 6 15 C2.95981041 12.07175273 1.27237767 9.00891167 0 5 C0 3.35 0 1.7 0 0 Z " fill="#AB6100" transform="translate(5,467)"/>
<path d="M0 0 C8.25 0 16.5 0 25 0 C25.99 4.62 26.98 9.24 28 14 C20.08 14 12.16 14 4 14 C3.67 14.66 3.34 15.32 3 16 C2.48611148 14.65104264 1.98967278 13.29543517 1.5 11.9375 C1.08234375 10.80634766 1.08234375 10.80634766 0.65625 9.65234375 C0 7 0 7 0 0 Z " fill="#CA7200" transform="translate(1,453)"/>
<path d="M0 0 C8.25 0.33 16.5 0.66 25 1 C24 9 24 9 23 13 C14.75 13 6.5 13 -2 13 C-1 3 -1 3 0 0 Z " fill="#CB7300" transform="translate(3,425)"/>
</svg>
